<svg width="36" height="36" viewBox="0 0 36 36" xmlns="http://www.w3.org/2000/svg"><title>6E407F45-6A04-4D31-ADF3-FFE1620BEDA6</title><defs><linearGradient x1="50%" y1="0%" x2="50%" y2="100%" id="a"><stop stop-color="#FD6882" offset="0%"/><stop stop-color="#E3405D" offset="100%"/></linearGradient></defs><g transform="translate(-713 -7959)" fill="url(#a)" fill-rule="evenodd"><path d="M719.904 7983.564s-6.634 5.18-4.667 8.73l.734.737c1.176 1.58 3.933 3.155 6.683 0 1.176-1.58 23.585-29.592 23.585-29.592 2.754-3.155-.784-5.916-3.142-3.55l-23.193 23.675z"/><path d="M724.42 7965.773s-5.18-6.634-8.73-4.667l-.737.734c-1.58 1.176-3.155 3.933 0 6.683 1.58 1.176 29.592 23.585 29.592 23.585 3.155 2.754 5.916-.784 3.55-3.142l-23.675-23.193z"/></g></svg>