<?xml version="1.0" encoding="UTF-8"?>
<svg width="290px" height="25px" viewBox="0 0 290 25" version="1.1" xmlns="http://www.w3.org/2000/svg" xmlns:xlink="http://www.w3.org/1999/xlink">
    <!-- Generator: Sketch 41.2 (35397) - http://www.bohemiancoding.com/sketch -->
    <title>logo</title>
    <desc>Created with Sketch.</desc>
    <defs>
        <linearGradient x1="50%" y1="0%" x2="50%" y2="100%" id="linearGradient-1">
            <stop stop-color="#0A55F7" offset="0%"></stop>
            <stop stop-color="#0A55F7" offset="100%"></stop>
        </linearGradient>
    </defs>
    <g stroke="none" stroke-width="1" fill="none" fill-rule="evenodd">
        <g transform="translate(-575.000000, -5637.000000)">
            <g transform="translate(575.000000, 5637.000000)">
                <g>
                    <g>
                        <path d="M32.0127778,18.5483871 L42.1627778,18.5483871 C43.9027778,18.5483871 44.7083333,18.3387097 45.4011111,17.6774194 C46.11,17.0322581 46.5772222,15.8387097 46.5772222,14.6935484 C46.5772222,13.6129032 46.0938889,13.2580645 44.4666667,13.0967742 C45.4977778,12.9354839 45.9327778,12.7419355 46.3677778,12.2580645 C46.8511111,11.7096774 47.2055556,10.6129032 47.2055556,9.66129032 C47.2055556,8.96774194 46.9477778,8.5 46.3677778,8.17741935 C45.8844444,7.88709677 45.24,7.79032258 43.9994444,7.79032258 L34.3005556,7.79032258 L32.0127778,18.5483871 Z M36.5722222,12.0806452 L36.975,10.1774194 L42.3883333,10.1774194 C43.0166667,10.1774194 43.1616667,10.1935484 43.355,10.2580645 C43.645,10.3548387 43.7738889,10.5645161 43.7738889,10.9032258 C43.7738889,11.2580645 43.5966667,11.6612903 43.3227778,11.8548387 C43.0811111,12.0322581 42.8233333,12.0806452 42.0661111,12.0806452 L36.5722222,12.0806452 Z M35.7183333,16.1612903 L36.1211111,14.1935484 L41.8888889,14.1935484 C42.6138889,14.1935484 42.7427778,14.2096774 42.92,14.2741935 C43.1777778,14.3709677 43.3066667,14.5806452 43.3066667,14.9193548 C43.3066667,15.3548387 43.0811111,15.8064516 42.7588889,16 C42.5011111,16.1451613 42.34,16.1612903 41.5666667,16.1612903 L35.7183333,16.1612903 Z M54.8422222,10.8387097 C50.6211111,10.8387097 49.5255556,11.3870968 48.8972222,13.8709677 C48.5911111,15.0483871 48.3977778,16.1612903 48.3977778,16.6612903 C48.3977778,17.4354839 48.6555556,17.9193548 49.2677778,18.2580645 C49.8316667,18.5806452 51.0238889,18.7258065 53.07,18.7258065 C55.0677778,18.7258065 56.5016667,18.5806452 57.1944444,18.3225806 C58.3866667,17.8387097 58.8377778,17.2258065 59.2727778,15.4516129 C59.5627778,14.2258065 59.7238889,13.3064516 59.7238889,12.8548387 C59.7238889,11.8548387 59.16,11.2580645 58.0483333,11.0483871 C57.3233333,10.9193548 56.0988889,10.8387097 54.8422222,10.8387097 Z M54.4072222,12.8870968 C55.4061111,12.8870968 55.9538889,12.9354839 56.2277778,13.0322581 C56.5983333,13.1612903 56.7755556,13.4193548 56.7755556,13.8064516 C56.7755556,14.0645161 56.695,14.5483871 56.5661111,15.0806452 C56.4211111,15.6935484 56.3244444,15.9193548 56.0827778,16.1774194 C55.7122222,16.5806452 55.2288889,16.6774194 53.6661111,16.6774194 C51.8133333,16.6774194 51.33,16.483871 51.33,15.7258065 C51.33,15.4354839 51.4105556,14.9677419 51.5394444,14.4516129 C51.7166667,13.7903226 51.8455556,13.5483871 52.1355556,13.3064516 C52.5383333,12.983871 53.0216667,12.8870968 54.4072222,12.8870968 Z M68.4238889,18.5483871 L71.0983333,18.5483871 L73.3861111,7.79032258 L70.615,7.79032258 L69.6483333,12.3225806 C69.3583333,11.5806452 69.1488889,11.3387097 68.6816667,11.1451613 C68.1661111,10.9516129 67.3766667,10.8387097 66.3938889,10.8387097 C64.1061111,10.8387097 62.6722222,11.3225806 62.0116667,12.3064516 C61.4961111,13.0967742 60.8677778,15.5 60.8677778,16.7419355 C60.8677778,17.7096774 61.3188889,18.2258065 62.4305556,18.5 C63.0427778,18.6290323 64.0255556,18.7258065 65.0083333,18.7258065 C67.1188889,18.7258065 68.005,18.2903226 68.7783333,16.9032258 L68.4238889,18.5483871 Z M66.8127778,12.9032258 C68.8427778,12.9032258 69.2938889,13.0806452 69.2938889,13.8548387 C69.2938889,14.6935484 68.9716667,15.7741935 68.6011111,16.1612903 C68.2466667,16.5322581 67.6183333,16.6612903 66.0877778,16.6612903 C64.2511111,16.6612903 63.8161111,16.483871 63.8161111,15.7096774 C63.8161111,15.4677419 63.8966667,14.9354839 64.0094444,14.516129 C64.1544444,13.9677419 64.2833333,13.7096774 64.525,13.4354839 C64.9277778,13 65.3627778,12.9032258 66.8127778,12.9032258 Z M75.8511111,18.5483871 L77.0433333,18.5483871 L76.6405556,19.1451613 C76.1411111,19.8870968 75.8188889,20.0322581 74.7072222,20.0322581 L74.3688889,20.0322581 L73.9661111,21.9032258 C74.4333333,21.9354839 74.6911111,21.9516129 75.1261111,21.9516129 C77.0755556,21.9516129 77.5427778,21.7096774 78.6383333,20.1129032 L84.8572222,11.016129 L81.7477778,11.016129 L78.155,16.5967742 L77.1238889,11.016129 L74.0466667,11.016129 L75.8511111,18.5483871 Z M88.8527778,18.5483871 L92.1233333,18.5483871 L93.8472222,10.4516129 L98.6322222,10.4516129 L99.1961111,7.79032258 L86.3555556,7.79032258 L85.7916667,10.4516129 L90.5766667,10.4516129 L88.8527778,18.5483871 Z M96.6827778,18.5483871 L99.4538889,18.5483871 L100.195,15.0806452 C100.517222,13.5645161 101.129444,13.016129 102.515,13.016129 C103.401111,13.016129 103.787778,13.2580645 103.787778,13.7903226 C103.787778,13.9516129 103.771667,14.0806452 103.707222,14.3387097 L106.301111,14.3387097 C106.510556,13.516129 106.591111,13.016129 106.591111,12.5967742 C106.591111,11.3870968 105.801667,10.8387097 104.061667,10.8387097 C103.062778,10.8387097 102.160556,11.0483871 101.612778,11.4193548 C101.242222,11.6612903 101.081111,11.8548387 100.581667,12.6935484 L100.936111,11.016129 L98.2777778,11.016129 L96.6827778,18.5483871 Z M113.808889,18.5483871 L116.58,18.5483871 L117.578889,13.8870968 C117.74,13.1129032 117.74,13.1129032 117.74,12.8225806 C117.74,12.1290323 117.498333,11.5967742 117.047222,11.3387097 C116.418889,10.9677419 115.548889,10.8387097 113.535,10.8387097 C111.07,10.8387097 110.183889,10.9516129 109.378333,11.3387097 C108.492222,11.7580645 108.121667,12.2258065 107.863889,13.2096774 L110.635,13.2096774 C110.812222,12.6612903 111.005556,12.5967742 112.713333,12.5967742 C114.453333,12.5967742 114.823889,12.7258065 114.823889,13.3064516 C114.823889,13.4032258 114.807778,13.5645161 114.727222,13.8870968 L114.55,14.7096774 C114.437222,13.9677419 113.889444,13.7741935 112.068889,13.7741935 C111.279444,13.7741935 110.393333,13.7903226 110.038889,13.8225806 C108.766111,13.9032258 108.041111,14.1774194 107.525556,14.7741935 C107.122778,15.2580645 106.784444,16.3548387 106.784444,17.1774194 C106.784444,18.3870968 107.557778,18.7258065 110.296667,18.7258065 C112.745556,18.7258065 113.486667,18.4354839 114.098889,17.2096774 L113.808889,18.5483871 Z M112.036667,15.3225806 C113.905556,15.3225806 114.324444,15.4354839 114.324444,15.9516129 C114.324444,16.3709677 114.034444,16.7580645 113.615556,16.8709677 C113.293333,16.9677419 112.858333,17 111.907778,17 C110.506111,17 110.328889,16.983871 110.006667,16.8709677 C109.765,16.7741935 109.636111,16.5967742 109.636111,16.3548387 C109.636111,15.9032258 109.91,15.5645161 110.361111,15.4516129 C110.683333,15.3709677 111.231111,15.3225806 112.036667,15.3225806 Z M118.948333,18.5483871 L121.719444,18.5483871 L122.444444,15.1451613 C122.798889,13.483871 123.427222,13 125.28,13 C126.842778,13 127.293889,13.2258065 127.293889,14.0322581 C127.293889,14.2258065 127.261667,14.4354839 127.213333,14.6612903 L126.391667,18.5483871 L129.162778,18.5483871 L130.016667,14.5483871 C130.145556,13.9354839 130.21,13.4354839 130.21,13.016129 C130.21,12.2580645 129.823333,11.5967742 129.195,11.2741935 C128.615,10.9677419 127.906111,10.8387097 126.762222,10.8387097 C124.474444,10.8387097 123.588333,11.2741935 122.879444,12.7580645 L123.25,11.016129 L120.543333,11.016129 L118.948333,18.5483871 Z M131.66,16.2258065 C131.579444,16.5483871 131.563333,16.7096774 131.563333,16.9032258 C131.563333,17.5322581 131.805,18.016129 132.256111,18.2580645 C132.900556,18.6290323 133.625556,18.7258065 135.977778,18.7258065 C139.828333,18.7258065 141.020556,18.4193548 141.713333,17.2741935 C142.003333,16.7903226 142.228889,15.9516129 142.228889,15.3225806 C142.228889,14.1451613 141.407222,13.7580645 138.893889,13.7580645 L136.944444,13.7580645 C135.526667,13.7580645 135.220556,13.6774194 135.220556,13.2903226 C135.220556,12.7580645 135.832778,12.5645161 137.637222,12.5645161 C139.103333,12.5645161 139.49,12.6612903 139.49,13.0322581 L139.49,13.0967742 L142.39,13.0967742 C142.454444,12.8064516 142.470556,12.6451613 142.470556,12.4516129 C142.470556,11.1451613 141.616667,10.8387097 138.007778,10.8387097 C135.800556,10.8387097 134.447222,11 133.770556,11.3225806 C132.884444,11.7419355 132.256111,12.8709677 132.256111,14.0483871 C132.256111,15.3064516 133.093889,15.6935484 135.768333,15.6935484 L137.153889,15.6935484 C138.233333,15.6935484 138.636111,15.7096774 138.893889,15.7580645 C139.135556,15.8064516 139.280556,15.983871 139.280556,16.2096774 C139.280556,16.8064516 138.668333,17.016129 136.976667,17.016129 C135.027222,17.016129 134.56,16.8870968 134.56,16.4032258 C134.56,16.3548387 134.56,16.3064516 134.576111,16.2258065 L131.66,16.2258065 Z M144.291111,18.5483871 L147.062222,18.5483871 L148.270556,12.9032258 L151.041667,12.9032258 L151.444444,11.016129 L148.673333,11.016129 L148.721667,10.7903226 C148.931111,9.75806452 149.35,9.46774194 150.542222,9.46774194 C150.816111,9.46774194 151.106111,9.48387097 151.605556,9.5 L151.992222,7.67741935 C151.315556,7.62903226 150.928889,7.61290323 150.477778,7.61290323 C148.931111,7.61290323 148.206111,7.72580645 147.561667,8.08064516 C146.691667,8.58064516 146.272778,9.27419355 145.950556,10.7741935 L145.902222,11.016129 L144.403889,11.016129 L144.001111,12.9032258 L145.499444,12.9032258 L144.291111,18.5483871 Z M158.001667,10.8387097 C153.780556,10.8387097 152.685,11.3870968 152.056667,13.8709677 C151.750556,15.0483871 151.557222,16.1612903 151.557222,16.6612903 C151.557222,17.4354839 151.815,17.9193548 152.427222,18.2580645 C152.991111,18.5806452 154.183333,18.7258065 156.229444,18.7258065 C158.227222,18.7258065 159.661111,18.5806452 160.353889,18.3225806 C161.546111,17.8387097 161.997222,17.2258065 162.432222,15.4516129 C162.722222,14.2258065 162.883333,13.3064516 162.883333,12.8548387 C162.883333,11.8548387 162.319444,11.2580645 161.207778,11.0483871 C160.482778,10.9193548 159.258333,10.8387097 158.001667,10.8387097 Z M157.566667,12.8870968 C158.565556,12.8870968 159.113333,12.9354839 159.387222,13.0322581 C159.757778,13.1612903 159.935,13.4193548 159.935,13.8064516 C159.935,14.0645161 159.854444,14.5483871 159.725556,15.0806452 C159.580556,15.6935484 159.483889,15.9193548 159.242222,16.1774194 C158.871667,16.5806452 158.388333,16.6774194 156.825556,16.6774194 C154.972778,16.6774194 154.489444,16.483871 154.489444,15.7258065 C154.489444,15.4354839 154.57,14.9677419 154.698889,14.4516129 C154.876111,13.7903226 155.005,13.5483871 155.295,13.3064516 C155.697778,12.983871 156.181111,12.8870968 157.566667,12.8870968 Z M163.817778,18.5483871 L166.588889,18.5483871 L167.33,15.0806452 C167.652222,13.5645161 168.264444,13.016129 169.65,13.016129 C170.536111,13.016129 170.922778,13.2580645 170.922778,13.7903226 C170.922778,13.9516129 170.906667,14.0806452 170.842222,14.3387097 L173.436111,14.3387097 C173.645556,13.516129 173.726111,13.016129 173.726111,12.5967742 C173.726111,11.3870968 172.936667,10.8387097 171.196667,10.8387097 C170.197778,10.8387097 169.295556,11.0483871 168.747778,11.4193548 C168.377222,11.6612903 168.216111,11.8548387 167.716667,12.6935484 L168.071111,11.016129 L165.412778,11.016129 L163.817778,18.5483871 Z M173.887222,18.5483871 L176.658333,18.5483871 L177.463889,14.7419355 C177.737778,13.4354839 178.382222,13 180.025556,13 C181.378889,13 181.797778,13.2258065 181.797778,13.9516129 C181.797778,14.1290323 181.765556,14.4032258 181.685,14.7419355 L180.879444,18.5483871 L183.650556,18.5483871 L184.407778,14.9677419 C184.73,13.4354839 185.31,13.016129 187.001667,13.016129 C188.338889,13.016129 188.79,13.2741935 188.79,14.016129 C188.79,14.1451613 188.757778,14.3870968 188.709444,14.5967742 L187.871667,18.5483871 L190.642778,18.5483871 L191.528889,14.3870968 C191.625556,13.9354839 191.673889,13.5322581 191.673889,13.1774194 C191.673889,11.5645161 190.594444,10.8387097 188.193889,10.8387097 C186.196111,10.8387097 185.148889,11.3387097 184.552778,12.5806452 C184.359444,11.4032258 183.328333,10.8387097 181.395,10.8387097 C179.445556,10.8387097 178.511111,11.2903226 177.850556,12.5483871 L178.172778,11.016129 L175.482222,11.016129 L173.887222,18.5483871 Z M200.083889,18.5483871 L202.855,18.5483871 L203.853889,13.8870968 C204.015,13.1129032 204.015,13.1129032 204.015,12.8225806 C204.015,12.1290323 203.773333,11.5967742 203.322222,11.3387097 C202.693889,10.9677419 201.823889,10.8387097 199.81,10.8387097 C197.345,10.8387097 196.458889,10.9516129 195.653333,11.3387097 C194.767222,11.7580645 194.396667,12.2258065 194.138889,13.2096774 L196.91,13.2096774 C197.087222,12.6612903 197.280556,12.5967742 198.988333,12.5967742 C200.728333,12.5967742 201.098889,12.7258065 201.098889,13.3064516 C201.098889,13.4032258 201.082778,13.5645161 201.002222,13.8870968 L200.825,14.7096774 C200.712222,13.9677419 200.164444,13.7741935 198.343889,13.7741935 C197.554444,13.7741935 196.668333,13.7903226 196.313889,13.8225806 C195.041111,13.9032258 194.316111,14.1774194 193.800556,14.7741935 C193.397778,15.2580645 193.059444,16.3548387 193.059444,17.1774194 C193.059444,18.3870968 193.832778,18.7258065 196.571667,18.7258065 C199.020556,18.7258065 199.761667,18.4354839 200.373889,17.2096774 L200.083889,18.5483871 Z M198.311667,15.3225806 C200.180556,15.3225806 200.599444,15.4354839 200.599444,15.9516129 C200.599444,16.3709677 200.309444,16.7580645 199.890556,16.8709677 C199.568333,16.9677419 199.133333,17 198.182778,17 C196.781111,17 196.603889,16.983871 196.281667,16.8709677 C196.04,16.7741935 195.911111,16.5967742 195.911111,16.3548387 C195.911111,15.9032258 196.185,15.5645161 196.636111,15.4516129 C196.958333,15.3709677 197.506111,15.3225806 198.311667,15.3225806 Z M211.7,15.3225806 L211.635556,15.6290323 C211.442222,16.5322581 211.168333,16.7419355 210.217778,16.7419355 C209.460556,16.7419355 209.186667,16.5483871 209.186667,16.0483871 C209.186667,15.8870968 209.218889,15.6935484 209.283333,15.3870968 L209.798889,12.9032258 L214.326111,12.9032258 L214.728889,11.016129 L210.201667,11.016129 L210.588333,9.24193548 L207.768889,9.24193548 L207.382222,11.016129 L205.964444,11.016129 L205.561667,12.9032258 L206.979444,12.9032258 L206.335,15.9677419 C206.254444,16.4032258 206.206111,16.7096774 206.206111,16.9677419 C206.206111,17.5483871 206.431667,17.983871 206.898889,18.3064516 C207.366111,18.6129032 208.075,18.7258065 209.766667,18.7258065 C211.216667,18.7258065 212.054444,18.5322581 212.698889,18.0322581 C213.198333,17.6451613 213.423889,17.1612903 213.697778,15.9193548 L213.826667,15.3225806 L211.7,15.3225806 Z M215.147778,18.5483871 L217.918889,18.5483871 L219.513889,11.016129 L216.742778,11.016129 L215.147778,18.5483871 Z M217.000556,9.80645161 L219.771667,9.80645161 L220.206667,7.79032258 L217.435556,7.79032258 L217.000556,9.80645161 Z M226.925,10.8387097 C222.703889,10.8387097 221.608333,11.3870968 220.98,13.8709677 C220.673889,15.0483871 220.480556,16.1612903 220.480556,16.6612903 C220.480556,17.4354839 220.738333,17.9193548 221.350556,18.2580645 C221.914444,18.5806452 223.106667,18.7258065 225.152778,18.7258065 C227.150556,18.7258065 228.584444,18.5806452 229.277222,18.3225806 C230.469444,17.8387097 230.920556,17.2258065 231.355556,15.4516129 C231.645556,14.2258065 231.806667,13.3064516 231.806667,12.8548387 C231.806667,11.8548387 231.242778,11.2580645 230.131111,11.0483871 C229.406111,10.9193548 228.181667,10.8387097 226.925,10.8387097 Z M226.49,12.8870968 C227.488889,12.8870968 228.036667,12.9354839 228.310556,13.0322581 C228.681111,13.1612903 228.858333,13.4193548 228.858333,13.8064516 C228.858333,14.0645161 228.777778,14.5483871 228.648889,15.0806452 C228.503889,15.6935484 228.407222,15.9193548 228.165556,16.1774194 C227.795,16.5806452 227.311667,16.6774194 225.748889,16.6774194 C223.896111,16.6774194 223.412778,16.483871 223.412778,15.7258065 C223.412778,15.4354839 223.493333,14.9677419 223.622222,14.4516129 C223.799444,13.7903226 223.928333,13.5483871 224.218333,13.3064516 C224.621111,12.983871 225.104444,12.8870968 226.49,12.8870968 Z M232.741111,18.5483871 L235.512222,18.5483871 L236.237222,15.1451613 C236.591667,13.483871 237.22,13 239.072778,13 C240.635556,13 241.086667,13.2258065 241.086667,14.0322581 C241.086667,14.2258065 241.054444,14.4354839 241.006111,14.6612903 L240.184444,18.5483871 L242.955556,18.5483871 L243.809444,14.5483871 C243.938333,13.9354839 244.002778,13.4354839 244.002778,13.016129 C244.002778,12.2580645 243.616111,11.5967742 242.987778,11.2741935 C242.407778,10.9677419 241.698889,10.8387097 240.555,10.8387097 C238.267222,10.8387097 237.381111,11.2741935 236.672222,12.7580645 L237.042778,11.016129 L234.336111,11.016129 L232.741111,18.5483871 Z M245.452778,16.2258065 C245.372222,16.5483871 245.356111,16.7096774 245.356111,16.9032258 C245.356111,17.5322581 245.597778,18.016129 246.048889,18.2580645 C246.693333,18.6290323 247.418333,18.7258065 249.770556,18.7258065 C253.621111,18.7258065 254.813333,18.4193548 255.506111,17.2741935 C255.796111,16.7903226 256.021667,15.9516129 256.021667,15.3225806 C256.021667,14.1451613 255.2,13.7580645 252.686667,13.7580645 L250.737222,13.7580645 C249.319444,13.7580645 249.013333,13.6774194 249.013333,13.2903226 C249.013333,12.7580645 249.625556,12.5645161 251.43,12.5645161 C252.896111,12.5645161 253.282778,12.6612903 253.282778,13.0322581 L253.282778,13.0967742 L256.182778,13.0967742 C256.247222,12.8064516 256.263333,12.6451613 256.263333,12.4516129 C256.263333,11.1451613 255.409444,10.8387097 251.800556,10.8387097 C249.593333,10.8387097 248.24,11 247.563333,11.3225806 C246.677222,11.7419355 246.048889,12.8709677 246.048889,14.0483871 C246.048889,15.3064516 246.886667,15.6935484 249.561111,15.6935484 L250.946667,15.6935484 C252.026111,15.6935484 252.428889,15.7096774 252.686667,15.7580645 C252.928333,15.8064516 253.073333,15.983871 253.073333,16.2096774 C253.073333,16.8064516 252.461111,17.016129 250.769444,17.016129 C248.82,17.016129 248.352778,16.8870968 248.352778,16.4032258 C248.352778,16.3548387 248.352778,16.3064516 248.368889,16.2258065 L245.452778,16.2258065 Z M259.349417,16.8983871 L257.594917,16.8983871 L257.240472,18.5483871 L259.003833,18.5483871 L259.349417,16.8983871 Z M266.5535,16.3217742 C266.456028,16.7475806 266.331972,16.925 266.057278,17.0314516 C265.800306,17.1379032 265.587639,17.1556452 264.231889,17.1556452 C262.840694,17.1556452 262.583722,17.0491935 262.583722,16.4991935 C262.583722,16.2153226 262.64575,15.8604839 262.80525,15.1774194 C262.991333,14.4145161 263.141972,14.2016129 263.611611,14.0774194 C263.806556,14.0241935 264.258472,14.0064516 265.224333,14.0064516 C266.668694,14.0064516 266.863639,14.0596774 266.863639,14.4677419 C266.863639,14.5298387 266.854778,14.5919355 266.837056,14.7072581 L268.556111,14.7072581 C268.653583,14.2814516 268.689028,14.0419355 268.689028,13.7846774 C268.689028,13.2258065 268.458639,12.9153226 267.935833,12.7467742 C267.545944,12.6225806 266.925667,12.5870968 265.135722,12.5870968 C263.735667,12.5870968 263.141972,12.6403226 262.64575,12.8177419 C261.777361,13.1282258 261.405194,13.625 261.095056,14.8935484 C260.855806,15.8516129 260.714028,16.6854839 260.714028,17.1290323 C260.714028,17.6612903 260.846944,18.0072581 261.1305,18.2024194 C261.564694,18.5129032 262.0875,18.5927419 263.735667,18.5927419 C264.488861,18.5927419 265.330667,18.583871 265.605361,18.575 C266.828194,18.5306452 267.395306,18.3354839 267.785194,17.8120968 C267.997861,17.5282258 268.095333,17.2532258 268.290278,16.3217742 L266.5535,16.3217742 Z M274.218361,12.5693548 C272.711972,12.5693548 272.136,12.6048387 271.622056,12.7467742 C270.576444,13.0306452 270.151111,13.5983871 269.814389,15.1596774 C269.557417,16.3306452 269.477667,16.7919355 269.477667,17.1379032 C269.477667,17.7322581 269.672611,18.1403226 270.044778,18.3266129 C270.532139,18.566129 271.010639,18.6104839 273.075278,18.6104839 C273.863917,18.6104839 274.634833,18.5927419 275.007,18.575 C275.972861,18.5129032 276.557694,18.2645161 277.00075,17.7322581 C277.328611,17.3330645 277.514694,16.8362903 277.736222,15.833871 C277.966611,14.7693548 278.028639,14.3701613 278.028639,14.0596774 C278.028639,13.4564516 277.833694,13.0395161 277.461528,12.8532258 C276.947583,12.5959677 276.602,12.5693548 274.218361,12.5693548 Z M274.120889,14.0153226 C275.937417,14.0153226 276.141222,14.0774194 276.141222,14.6362903 C276.141222,14.8758065 276.070333,15.275 275.919694,15.9403226 C275.707028,16.8008065 275.450056,17.0669355 274.758889,17.1290323 C274.44875,17.1556452 273.996833,17.1645161 273.199333,17.1645161 C271.675222,17.1645161 271.409389,17.0669355 271.409389,16.5169355 C271.409389,16.0112903 271.684083,14.8403226 271.879028,14.5032258 C272.118278,14.0774194 272.410694,14.0153226 274.120889,14.0153226 Z M278.578028,18.5483871 L280.314806,18.5483871 L281.236361,13.9798387 L282.840222,18.5483871 L284.284583,18.5483871 L287.873333,13.9798387 L286.81,18.5483871 L288.5645,18.5483871 L289.822778,12.6314516 L286.987222,12.6314516 L284.009889,16.5612903 L282.689583,12.6314516 L279.836306,12.6314516 L278.578028,18.5483871 Z" fill="#727272"></path>
                        <g fill="#676970">
                            <path d="M12.5229812,17.7203635 C8.21483282,17.7203635 4.25520313,19.0682032 1.11677908,21.3204186 C4.25520313,23.572634 8.21483282,24.9204737 12.5229812,24.9204737 C16.8311297,24.9204737 20.7907593,23.572634 23.9291834,21.3204186 C20.7907593,19.0682032 16.8311297,17.7203635 12.5229812,17.7203635 Z M22.2971561,8.08977992 C20.143155,4.38067629 16.9892282,1.64544864 13.4581172,0.0694794467 C13.0654303,3.89766405 13.8711332,7.9807314 16.0251343,11.689835 C18.1792816,15.399084 21.3330622,18.1341663 24.8643194,19.7101355 C25.2570063,15.8819509 24.4513034,11.799029 22.2971561,8.08977992 Z M11.5878452,0.0694794467 C8.05673424,1.64544864 4.90280748,4.38067629 2.74866013,8.08992532 C0.594659037,11.799029 -0.211043845,15.8820963 0.181643074,19.7102809 C3.71275406,18.1341663 6.86668084,15.399084 9.02068192,11.689835 C11.1748293,7.9807314 11.9805322,3.89766405 11.5878452,0.0694794467 Z M14.9234172,13.5126901 C14.9234172,14.8307231 13.8487567,15.8992532 12.5229812,15.8992532 C11.1972059,15.8992532 10.1225454,14.8307231 10.1225454,13.5126901 C10.1225454,12.1948023 11.1972059,11.1262723 12.5229812,11.1262723 C13.8487567,11.1262723 14.9234172,12.1948023 14.9234172,13.5126901 Z"></path>
                        </g>
                    </g>
                </g>
            </g>
        </g>
    </g>
</svg>