<?xml version="1.0" encoding="UTF-8" standalone="no"?>
<svg width="172px" height="199px" viewBox="0 0 172 199" version="1.1" xmlns="http://www.w3.org/2000/svg" xmlns:xlink="http://www.w3.org/1999/xlink">
    <!-- Generator: Sketch 41.2 (35397) - http://www.bohemiancoding.com/sketch -->
    <title>guidance</title>
    <desc>Created with Sketch.</desc>
    <defs>
        <linearGradient x1="50%" y1="0%" x2="50%" y2="100%" id="linearGradient-1">
            <stop stop-color="#B76AFF" offset="0%"></stop>
            <stop stop-color="#8645E8" offset="100%"></stop>
        </linearGradient>
        <path d="M40.0831906,0.415047264 C41.031202,-0.141521237 42.5790541,-0.135167822 43.5162436,0.415047264 L81.8829078,22.9397519 C82.8309192,23.4963204 83.5994343,24.8412883 83.5994343,25.9476378 L83.5994343,71.0278138 C83.5994343,72.1324548 82.8200973,73.4854846 81.8829078,74.0356997 L43.5162436,96.5604043 C42.5682322,97.1169729 41.0203802,97.1106194 40.0831906,96.5604043 L1.71652648,74.0356997 C0.768515084,73.4791312 -1.7283952e-12,72.1341633 -1.7283952e-12,71.0278138 L-1.75504056e-12,25.9476378 C-1.75504056e-12,24.8429968 0.77933695,23.489967 1.71652648,22.9397519 L40.0831906,0.415047264 Z" id="path-2"></path>
        <filter x="-50%" y="-50%" width="200%" height="200%" filterUnits="objectBoundingBox" id="filter-3">
            <feOffset dx="0" dy="12" in="SourceAlpha" result="shadowOffsetOuter1"></feOffset>
            <feGaussianBlur stdDeviation="5" in="shadowOffsetOuter1" result="shadowBlurOuter1"></feGaussianBlur>
            <feColorMatrix values="0 0 0 0 0   0 0 0 0 0   0 0 0 0 0  0 0 0 0.112743433 0" type="matrix" in="shadowBlurOuter1"></feColorMatrix>
        </filter>
        <filter x="-50%" y="-50%" width="200%" height="200%" filterUnits="objectBoundingBox" id="filter-4">
            <feOffset dx="0" dy="-2" in="SourceAlpha" result="shadowOffsetInner1"></feOffset>
            <feComposite in="shadowOffsetInner1" in2="SourceAlpha" operator="arithmetic" k2="-1" k3="1" result="shadowInnerInner1"></feComposite>
            <feColorMatrix values="0 0 0 0 0   0 0 0 0 0   0 0 0 0 0  0 0 0 0.103345788 0" type="matrix" in="shadowInnerInner1" result="shadowMatrixInner1"></feColorMatrix>
            <feOffset dx="0" dy="1" in="SourceAlpha" result="shadowOffsetInner2"></feOffset>
            <feComposite in="shadowOffsetInner2" in2="SourceAlpha" operator="arithmetic" k2="-1" k3="1" result="shadowInnerInner2"></feComposite>
            <feColorMatrix values="0 0 0 0 1   0 0 0 0 1   0 0 0 0 1  0 0 0 0.5 0" type="matrix" in="shadowInnerInner2" result="shadowMatrixInner2"></feColorMatrix>
            <feMerge>
                <feMergeNode in="shadowMatrixInner1"></feMergeNode>
                <feMergeNode in="shadowMatrixInner2"></feMergeNode>
            </feMerge>
        </filter>
        <path d="M45.0235991,53.4835106 C43.1500776,53.4835106 41.6262559,51.9319169 41.6262559,50.0242499 C41.6262559,48.116583 43.1500776,46.5649893 45.0235991,46.5649893 C46.8971206,46.5649893 48.4209423,48.116583 48.4209423,50.0242499 C48.4209423,51.9319169 46.8971206,53.4835106 45.0235991,53.4835106 Z" id="path-5"></path>
        <filter x="-50%" y="-50%" width="200%" height="200%" filterUnits="objectBoundingBox" id="filter-6">
            <feOffset dx="0" dy="12" in="SourceAlpha" result="shadowOffsetOuter1"></feOffset>
            <feGaussianBlur stdDeviation="5" in="shadowOffsetOuter1" result="shadowBlurOuter1"></feGaussianBlur>
            <feColorMatrix values="0 0 0 0 0   0 0 0 0 0   0 0 0 0 0  0 0 0 0.112743433 0" type="matrix" in="shadowBlurOuter1"></feColorMatrix>
        </filter>
        <polygon id="path-7" points="14.1452062 13.1476789 19.9175839 14.3326852 24.6842066 9.85051669 31.7079818 8.62416615 36.3323707 9.33091997 40.4974016 11.8634512 44.3092035 6.16594354 53.2769278 65.3062015 22.4061181 63.5402149"></polygon>
        <path d="M25.015373,6.00006668 C24.2789694,6.00766279 23.6175843,6.69042675 23.6328907,7.42724888 L23.6328907,10.747632 C15.7609409,11.4208053 9.46207698,17.7242662 8.78939587,25.6019773 L5.47143821,25.6019773 C5.42297395,25.5996472 5.374378,25.5996472 5.32591375,25.6019773 C4.59434055,25.6399578 3.96353877,26.3407334 4.00164117,27.0728488 C4.03974344,27.8049175 4.73987823,28.4363495 5.47143821,28.3980894 L8.78939587,28.3980894 C9.46207698,36.2757828 15.7609409,42.5792605 23.6328907,43.2524347 L23.6328907,46.5728178 C23.6224502,47.3114108 24.2917807,48 25.0299255,48 C25.7680702,48 26.4373985,47.3114108 26.4269603,46.5728178 L26.4269603,43.2524347 C34.2989101,42.5792605 40.597774,36.2757828 41.2704551,28.3980894 L44.5884127,28.3980894 C45.3264839,28.4083418 46,27.7387195 46,27.0000333 C46,26.2613471 45.3264839,25.5915338 44.5884127,25.6019773 L41.2704551,25.6019773 C40.597774,17.7242662 34.2989101,11.4208053 26.4269603,10.747632 L26.4269603,7.42724888 C26.442472,6.68071958 25.7614772,5.99220495 25.015373,6.00006668 Z M25.0299255,13.4854917 C32.5048962,13.4854917 38.5345953,19.5195901 38.5345953,27.0000333 C38.5345953,34.4804719 32.5048962,40.514575 25.0299255,40.514575 C17.5549548,40.514575 11.5252557,34.4804719 11.5252557,27.0000333 C11.5252557,19.5195901 17.5549548,13.4854917 25.0299255,13.4854917 Z M25.0299255,22.3398466 C22.4746026,22.3398466 20.3731428,24.4428351 20.3731428,27.0000333 C20.3731428,29.5572176 22.4746026,31.6602201 25.0299255,31.6602201 C27.5852479,31.6602201 29.6867082,29.5572176 29.6867082,27.0000333 C29.6867082,24.4428351 27.5852479,22.3398466 25.0299255,22.3398466 Z M25.0299255,25.1359586 C26.0752204,25.1359586 26.8926386,25.9539612 26.8926386,27.0000333 C26.8926386,28.0461055 26.0752204,28.8641081 25.0299255,28.8641081 C23.98463,28.8641081 23.1672124,28.0461055 23.1672124,27.0000333 C23.1672124,25.9539612 23.98463,25.1359586 25.0299255,25.1359586 Z" id="path-9"></path>
        <filter x="-50%" y="-50%" width="200%" height="200%" filterUnits="objectBoundingBox" id="filter-10">
            <feOffset dx="0" dy="1" in="SourceAlpha" result="shadowOffsetOuter1"></feOffset>
            <feGaussianBlur stdDeviation="0.5" in="shadowOffsetOuter1" result="shadowBlurOuter1"></feGaussianBlur>
            <feColorMatrix values="0 0 0 0 0   0 0 0 0 0   0 0 0 0 0  0 0 0 0.11 0" type="matrix" in="shadowBlurOuter1" result="shadowMatrixOuter1"></feColorMatrix>
            <feOffset dx="2" dy="2" in="SourceAlpha" result="shadowOffsetOuter2"></feOffset>
            <feGaussianBlur stdDeviation="1.5" in="shadowOffsetOuter2" result="shadowBlurOuter2"></feGaussianBlur>
            <feColorMatrix values="0 0 0 0 0.329411765   0 0 0 0 0.149019608   0 0 0 0 0.498039216  0 0 0 0.3 0" type="matrix" in="shadowBlurOuter2" result="shadowMatrixOuter2"></feColorMatrix>
            <feMerge>
                <feMergeNode in="shadowMatrixOuter1"></feMergeNode>
                <feMergeNode in="shadowMatrixOuter2"></feMergeNode>
            </feMerge>
        </filter>
        <linearGradient x1="66.3161727%" y1="172.188653%" x2="37.9602022%" y2="36.0843127%" id="linearGradient-11">
            <stop stop-color="#B266FC" stop-opacity="0" offset="0%"></stop>
            <stop stop-color="#4D2786" offset="100%"></stop>
        </linearGradient>
        <linearGradient x1="66.3161727%" y1="172.188653%" x2="40.4481971%" y2="55.3418807%" id="linearGradient-12">
            <stop stop-color="#B266FC" stop-opacity="0" offset="0%"></stop>
            <stop stop-color="#4D2786" offset="100%"></stop>
        </linearGradient>
        <path d="M25.015373,6.00006668 C24.2789694,6.00766279 23.6175843,6.69042675 23.6328907,7.42724888 L23.6328907,10.747632 C15.7609409,11.4208053 9.46207698,17.7242662 8.78939587,25.6019773 L5.47143821,25.6019773 C5.42297395,25.5996472 5.374378,25.5996472 5.32591375,25.6019773 C4.59434055,25.6399578 3.96353877,26.3407334 4.00164117,27.0728488 C4.03974344,27.8049175 4.73987823,28.4363495 5.47143821,28.3980894 L8.78939587,28.3980894 C9.46207698,36.2757828 15.7609409,42.5792605 23.6328907,43.2524347 L23.6328907,46.5728178 C23.6224502,47.3114108 24.2917807,48 25.0299255,48 C25.7680702,48 26.4373985,47.3114108 26.4269603,46.5728178 L26.4269603,43.2524347 C34.2989101,42.5792605 40.597774,36.2757828 41.2704551,28.3980894 L44.5884127,28.3980894 C45.3264839,28.4083418 46,27.7387195 46,27.0000333 C46,26.2613471 45.3264839,25.5915338 44.5884127,25.6019773 L41.2704551,25.6019773 C40.597774,17.7242662 34.2989101,11.4208053 26.4269603,10.747632 L26.4269603,7.42724888 C26.442472,6.68071958 25.7614772,5.99220495 25.015373,6.00006668 Z M25.0299255,13.4854917 C32.5048962,13.4854917 38.5345953,19.5195901 38.5345953,27.0000333 C38.5345953,34.4804719 32.5048962,40.514575 25.0299255,40.514575 C17.5549548,40.514575 11.5252557,34.4804719 11.5252557,27.0000333 C11.5252557,19.5195901 17.5549548,13.4854917 25.0299255,13.4854917 Z M25.0299255,22.3398466 C22.4746026,22.3398466 20.3731428,24.4428351 20.3731428,27.0000333 C20.3731428,29.5572176 22.4746026,31.6602201 25.0299255,31.6602201 C27.5852479,31.6602201 29.6867082,29.5572176 29.6867082,27.0000333 C29.6867082,24.4428351 27.5852479,22.3398466 25.0299255,22.3398466 Z M25.0299255,25.1359586 C26.0752204,25.1359586 26.8926386,25.9539612 26.8926386,27.0000333 C26.8926386,28.0461055 26.0752204,28.8641081 25.0299255,28.8641081 C23.98463,28.8641081 23.1672124,28.0461055 23.1672124,27.0000333 C23.1672124,25.9539612 23.98463,25.1359586 25.0299255,25.1359586 Z" id="path-13"></path>
        <filter x="-50%" y="-50%" width="200%" height="200%" filterUnits="objectBoundingBox" id="filter-14">
            <feOffset dx="0" dy="1" in="SourceAlpha" result="shadowOffsetOuter1"></feOffset>
            <feGaussianBlur stdDeviation="0.5" in="shadowOffsetOuter1" result="shadowBlurOuter1"></feGaussianBlur>
            <feColorMatrix values="0 0 0 0 0   0 0 0 0 0   0 0 0 0 0  0 0 0 0.1 0" type="matrix" in="shadowBlurOuter1"></feColorMatrix>
        </filter>
    </defs>
    <g stroke="none" stroke-width="1" fill="none" fill-rule="evenodd">
        <g>
            <g transform="translate(44.000000, 51.000000)">
                <g>
                    <g>
                        <use fill="black" fill-opacity="1" filter="url(#filter-3)" xlink:href="#path-2"></use>
                        <use fill="url(#linearGradient-1)" fill-rule="evenodd" xlink:href="#path-2"></use>
                        <use fill="black" fill-opacity="1" filter="url(#filter-4)" xlink:href="#path-2"></use>
                    </g>
                    <g>
                        <use fill="black" fill-opacity="1" filter="url(#filter-6)" xlink:href="#path-5"></use>
                        <use fill="url(#linearGradient-1)" fill-rule="evenodd" xlink:href="#path-5"></use>
                    </g>
                    <g transform="translate(17.000000, 23.000000)">
                        <g>
                            <mask id="mask-8" fill="white">
                                <use xlink:href="#path-7"></use>
                            </mask>
                            <g opacity="0.14" transform="translate(33.711067, 35.736073) rotate(-34.000000) translate(-33.711067, -35.736073) "></g>
                            <g mask="url(#mask-8)">
                                <use fill="black" fill-opacity="1" filter="url(#filter-10)" xlink:href="#path-9"></use>
                                <use fill="#FFFFFF" fill-rule="evenodd" xlink:href="#path-9"></use>
                            </g>
                        </g>
                        <g>
                            <polygon fill="url(#linearGradient-11)" opacity="0.379999995" transform="translate(33.711067, 35.736073) rotate(-34.000000) translate(-33.711067, -35.736073) " points="14.1452062 13.1476789 19.9175839 14.3326852 24.6842066 9.85051669 31.7079818 8.62416615 36.3323707 9.33091997 40.4974016 11.8634512 44.3092035 6.16594354 53.2769278 65.3062015 22.4061181 63.5402149"></polygon>
                            <polygon fill="url(#linearGradient-12)" opacity="0.291336287" transform="translate(29.753692, 31.530107) rotate(-34.000000) translate(-29.753692, -31.530107) " points="23.5244335 23.9909066 32.4356407 22.1658869 35.9829499 39.2263759 27.0009945 40.8943273"></polygon>
                            <g>
                                <use fill="black" fill-opacity="1" filter="url(#filter-14)" xlink:href="#path-13"></use>
                                <use fill="#FFFFFF" fill-rule="evenodd" xlink:href="#path-13"></use>
                            </g>
                        </g>
                    </g>
                </g>
            </g>
        </g>
    </g>
</svg>