<?xml version="1.0" encoding="UTF-8" standalone="no"?>
<svg width="36px" height="36px" viewBox="0 0 36 36" version="1.1" xmlns="http://www.w3.org/2000/svg" xmlns:xlink="http://www.w3.org/1999/xlink">
    <!-- Generator: Sketch 41.2 (35397) - http://www.bohemiancoding.com/sketch -->
    <title>crossed</title>
    <desc>Created with Sketch.</desc>
    <defs>
        <linearGradient x1="50%" y1="0%" x2="50%" y2="100%" id="linearGradient-1">
            <stop stop-color="#FD6882" offset="0%"></stop>
            <stop stop-color="#E3405D" offset="100%"></stop>
        </linearGradient>
    </defs>
    <g stroke="none" stroke-width="1" fill="none" fill-rule="evenodd">
        <g fill="url(#linearGradient-1)">
            <path d="M6.90376822,24.5639636 C6.90376822,24.5639636 0.270202842,29.7431488 2.23670755,33.2935855 L2.97075881,34.0307072 C4.14674169,35.6101295 6.90376822,37.1862884 9.65426152,34.0307072 C10.8302444,32.451285 33.2392515,4.43938322 33.2392515,4.43938322 C35.9930115,1.28380203 32.4552629,-1.47692361 30.0967639,0.888946468 L6.90376822,24.5639636 Z"></path>
            <path d="M6.90376822,24.5639636 C6.90376822,24.5639636 0.270202842,29.7431488 2.23670755,33.2935855 L2.97075881,34.0307072 C4.14674169,35.6101295 6.90376822,37.1862884 9.65426152,34.0307072 C10.8302444,32.451285 33.2392515,4.43938322 33.2392515,4.43938322 C35.9930115,1.28380203 32.4552629,-1.47692361 30.0967639,0.888946468 L6.90376822,24.5639636 Z" transform="translate(18.057455, 17.926544) scale(-1, -1) rotate(-90.000000) translate(-18.057455, -17.926544) "></path>
        </g>
    </g>
</svg>