<?xml version="1.0" encoding="UTF-8" standalone="no"?>
<svg width="360px" height="31px" viewBox="0 0 360 31" version="1.1" xmlns="http://www.w3.org/2000/svg" xmlns:xlink="http://www.w3.org/1999/xlink">
    <!-- Generator: sketchtool 41.2 (35397) - http://www.bohemiancoding.com/sketch -->
    <title>DA986AA4-E2D1-4069-AFE8-5D33784EDC49</title>
    <desc>Created with sketchtool.</desc>
    <defs>
        <linearGradient x1="50%" y1="0%" x2="50%" y2="100%" id="linearGradient-1">
            <stop stop-color="#0A55F7" offset="0%"></stop>
            <stop stop-color="#0A55F7" offset="100%"></stop>
        </linearGradient>
    </defs>
    <g id="Page-1" stroke="none" stroke-width="1" fill="none" fill-rule="evenodd">
        <g id="Get-Started---Desktop" transform="translate(-45.000000, -21.000000)">
            <g id="logo" transform="translate(45.000000, 21.000000)">
                <g id="Group">
                    <g id="Shape">
                        <path d="M39.74,23 L52.34,23 C54.5,23 55.5,22.74 56.36,21.92 C57.24,21.12 57.82,19.64 57.82,18.22 C57.82,16.88 57.22,16.44 55.2,16.24 C56.48,16.04 57.02,15.8 57.56,15.2 C58.16,14.52 58.6,13.16 58.6,11.98 C58.6,11.12 58.28,10.54 57.56,10.14 C56.96,9.78 56.16,9.66 54.62,9.66 L42.58,9.66 L39.74,23 Z M45.4,14.98 L45.9,12.62 L52.62,12.62 C53.4,12.62 53.58,12.64 53.82,12.72 C54.18,12.84 54.34,13.1 54.34,13.52 C54.34,13.96 54.12,14.46 53.78,14.7 C53.48,14.92 53.16,14.98 52.22,14.98 L45.4,14.98 Z M44.34,20.04 L44.84,17.6 L52,17.6 C52.9,17.6 53.06,17.62 53.28,17.7 C53.6,17.82 53.76,18.08 53.76,18.5 C53.76,19.04 53.48,19.6 53.08,19.84 C52.76,20.02 52.56,20.04 51.6,20.04 L44.34,20.04 Z M68.08,13.44 C62.84,13.44 61.48,14.12 60.7,17.2 C60.32,18.66 60.08,20.04 60.08,20.66 C60.08,21.62 60.4,22.22 61.16,22.64 C61.86,23.04 63.34,23.22 65.88,23.22 C68.36,23.22 70.14,23.04 71,22.72 C72.48,22.12 73.04,21.36 73.58,19.16 C73.94,17.64 74.14,16.5 74.14,15.94 C74.14,14.7 73.44,13.96 72.06,13.7 C71.16,13.54 69.64,13.44 68.08,13.44 Z M67.54,15.98 C68.78,15.98 69.46,16.04 69.8,16.16 C70.26,16.32 70.48,16.64 70.48,17.12 C70.48,17.44 70.38,18.04 70.22,18.7 C70.04,19.46 69.92,19.74 69.62,20.06 C69.16,20.56 68.56,20.68 66.62,20.68 C64.32,20.68 63.72,20.44 63.72,19.5 C63.72,19.14 63.82,18.56 63.98,17.92 C64.2,17.1 64.36,16.8 64.72,16.5 C65.22,16.1 65.82,15.98 67.54,15.98 Z M84.94,23 L88.26,23 L91.1,9.66 L87.66,9.66 L86.46,15.28 C86.1,14.36 85.84,14.06 85.26,13.82 C84.62,13.58 83.64,13.44 82.42,13.44 C79.58,13.44 77.8,14.04 76.98,15.26 C76.34,16.24 75.56,19.22 75.56,20.76 C75.56,21.96 76.12,22.6 77.5,22.94 C78.26,23.1 79.48,23.22 80.7,23.22 C83.32,23.22 84.42,22.68 85.38,20.96 L84.94,23 Z M82.94,16 C85.46,16 86.02,16.22 86.02,17.18 C86.02,18.22 85.62,19.56 85.16,20.04 C84.72,20.5 83.94,20.66 82.04,20.66 C79.76,20.66 79.22,20.44 79.22,19.48 C79.22,19.18 79.32,18.52 79.46,18 C79.64,17.32 79.8,17 80.1,16.66 C80.6,16.12 81.14,16 82.94,16 Z M94.16,23 L95.64,23 L95.14,23.74 C94.52,24.66 94.12,24.84 92.74,24.84 L92.32,24.84 L91.82,27.16 C92.4,27.2 92.72,27.22 93.26,27.22 C95.68,27.22 96.26,26.92 97.62,24.94 L105.34,13.66 L101.48,13.66 L97.02,20.58 L95.74,13.66 L91.92,13.66 L94.16,23 Z M110.3,23 L114.36,23 L116.5,12.96 L122.44,12.96 L123.14,9.66 L107.2,9.66 L106.5,12.96 L112.44,12.96 L110.3,23 Z M120.02,23 L123.46,23 L124.38,18.7 C124.78,16.82 125.54,16.14 127.26,16.14 C128.36,16.14 128.84,16.44 128.84,17.1 C128.84,17.3 128.82,17.46 128.74,17.78 L131.96,17.78 C132.22,16.76 132.32,16.14 132.32,15.62 C132.32,14.12 131.34,13.44 129.18,13.44 C127.94,13.44 126.82,13.7 126.14,14.16 C125.68,14.46 125.48,14.7 124.86,15.74 L125.3,13.66 L122,13.66 L120.02,23 Z M141.28,23 L144.72,23 L145.96,17.22 C146.16,16.26 146.16,16.26 146.16,15.9 C146.16,15.04 145.86,14.38 145.3,14.06 C144.52,13.6 143.44,13.44 140.94,13.44 C137.88,13.44 136.78,13.58 135.78,14.06 C134.68,14.58 134.22,15.16 133.9,16.38 L137.34,16.38 C137.56,15.7 137.8,15.62 139.92,15.62 C142.08,15.62 142.54,15.78 142.54,16.5 C142.54,16.62 142.52,16.82 142.42,17.22 L142.2,18.24 C142.06,17.32 141.38,17.08 139.12,17.08 C138.14,17.08 137.04,17.1 136.6,17.14 C135.02,17.24 134.12,17.58 133.48,18.32 C132.98,18.92 132.56,20.28 132.56,21.3 C132.56,22.8 133.52,23.22 136.92,23.22 C139.96,23.22 140.88,22.86 141.64,21.34 L141.28,23 Z M139.08,19 C141.4,19 141.92,19.14 141.92,19.78 C141.92,20.3 141.56,20.78 141.04,20.92 C140.64,21.04 140.1,21.08 138.92,21.08 C137.18,21.08 136.96,21.06 136.56,20.92 C136.26,20.8 136.1,20.58 136.1,20.28 C136.1,19.72 136.44,19.3 137,19.16 C137.4,19.06 138.08,19 139.08,19 Z M147.66,23 L151.1,23 L152,18.78 C152.44,16.72 153.22,16.12 155.52,16.12 C157.46,16.12 158.02,16.4 158.02,17.4 C158.02,17.64 157.98,17.9 157.92,18.18 L156.9,23 L160.34,23 L161.4,18.04 C161.56,17.28 161.64,16.66 161.64,16.14 C161.64,15.2 161.16,14.38 160.38,13.98 C159.66,13.6 158.78,13.44 157.36,13.44 C154.52,13.44 153.42,13.98 152.54,15.82 L153,13.66 L149.64,13.66 L147.66,23 Z M163.44,20.12 C163.34,20.52 163.32,20.72 163.32,20.96 C163.32,21.74 163.62,22.34 164.18,22.64 C164.98,23.1 165.88,23.22 168.8,23.22 C173.58,23.22 175.06,22.84 175.92,21.42 C176.28,20.82 176.56,19.78 176.56,19 C176.56,17.54 175.54,17.06 172.42,17.06 L170,17.06 C168.24,17.06 167.86,16.96 167.86,16.48 C167.86,15.82 168.62,15.58 170.86,15.58 C172.68,15.58 173.16,15.7 173.16,16.16 L173.16,16.24 L176.76,16.24 C176.84,15.88 176.86,15.68 176.86,15.44 C176.86,13.82 175.8,13.44 171.32,13.44 C168.58,13.44 166.9,13.64 166.06,14.04 C164.96,14.56 164.18,15.96 164.18,17.42 C164.18,18.98 165.22,19.46 168.54,19.46 L170.26,19.46 C171.6,19.46 172.1,19.48 172.42,19.54 C172.72,19.6 172.9,19.82 172.9,20.1 C172.9,20.84 172.14,21.1 170.04,21.1 C167.62,21.1 167.04,20.94 167.04,20.34 C167.04,20.28 167.04,20.22 167.06,20.12 L163.44,20.12 Z M179.12,23 L182.56,23 L184.06,16 L187.5,16 L188,13.66 L184.56,13.66 L184.62,13.38 C184.88,12.1 185.4,11.74 186.88,11.74 C187.22,11.74 187.58,11.76 188.2,11.78 L188.68,9.52 C187.84,9.46 187.36,9.44 186.8,9.44 C184.88,9.44 183.98,9.58 183.18,10.02 C182.1,10.64 181.58,11.5 181.18,13.36 L181.12,13.66 L179.26,13.66 L178.76,16 L180.62,16 L179.12,23 Z M196.14,13.44 C190.9,13.44 189.54,14.12 188.76,17.2 C188.38,18.66 188.14,20.04 188.14,20.66 C188.14,21.62 188.46,22.22 189.22,22.64 C189.92,23.04 191.4,23.22 193.94,23.22 C196.42,23.22 198.2,23.04 199.06,22.72 C200.54,22.12 201.1,21.36 201.64,19.16 C202,17.64 202.2,16.5 202.2,15.94 C202.2,14.7 201.5,13.96 200.12,13.7 C199.22,13.54 197.7,13.44 196.14,13.44 Z M195.6,15.98 C196.84,15.98 197.52,16.04 197.86,16.16 C198.32,16.32 198.54,16.64 198.54,17.12 C198.54,17.44 198.44,18.04 198.28,18.7 C198.1,19.46 197.98,19.74 197.68,20.06 C197.22,20.56 196.62,20.68 194.68,20.68 C192.38,20.68 191.78,20.44 191.78,19.5 C191.78,19.14 191.88,18.56 192.04,17.92 C192.26,17.1 192.42,16.8 192.78,16.5 C193.28,16.1 193.88,15.98 195.6,15.98 Z M203.36,23 L206.8,23 L207.72,18.7 C208.12,16.82 208.88,16.14 210.6,16.14 C211.7,16.14 212.18,16.44 212.18,17.1 C212.18,17.3 212.16,17.46 212.08,17.78 L215.3,17.78 C215.56,16.76 215.66,16.14 215.66,15.62 C215.66,14.12 214.68,13.44 212.52,13.44 C211.28,13.44 210.16,13.7 209.48,14.16 C209.02,14.46 208.82,14.7 208.2,15.74 L208.64,13.66 L205.34,13.66 L203.36,23 Z M215.86,23 L219.3,23 L220.3,18.28 C220.64,16.66 221.44,16.12 223.48,16.12 C225.16,16.12 225.68,16.4 225.68,17.3 C225.68,17.52 225.64,17.86 225.54,18.28 L224.54,23 L227.98,23 L228.92,18.56 C229.32,16.66 230.04,16.14 232.14,16.14 C233.8,16.14 234.36,16.46 234.36,17.38 C234.36,17.54 234.32,17.84 234.26,18.1 L233.22,23 L236.66,23 L237.76,17.84 C237.88,17.28 237.94,16.78 237.94,16.34 C237.94,14.34 236.6,13.44 233.62,13.44 C231.14,13.44 229.84,14.06 229.1,15.6 C228.86,14.14 227.58,13.44 225.18,13.44 C222.76,13.44 221.6,14 220.78,15.56 L221.18,13.66 L217.84,13.66 L215.86,23 Z M248.38,23 L251.82,23 L253.06,17.22 C253.26,16.26 253.26,16.26 253.26,15.9 C253.26,15.04 252.96,14.38 252.4,14.06 C251.62,13.6 250.54,13.44 248.04,13.44 C244.98,13.44 243.88,13.58 242.88,14.06 C241.78,14.58 241.32,15.16 241,16.38 L244.44,16.38 C244.66,15.7 244.9,15.62 247.02,15.62 C249.18,15.62 249.64,15.78 249.64,16.5 C249.64,16.62 249.62,16.82 249.52,17.22 L249.3,18.24 C249.16,17.32 248.48,17.08 246.22,17.08 C245.24,17.08 244.14,17.1 243.7,17.14 C242.12,17.24 241.22,17.58 240.58,18.32 C240.08,18.92 239.66,20.28 239.66,21.3 C239.66,22.8 240.62,23.22 244.02,23.22 C247.06,23.22 247.98,22.86 248.74,21.34 L248.38,23 Z M246.18,19 C248.5,19 249.02,19.14 249.02,19.78 C249.02,20.3 248.66,20.78 248.14,20.92 C247.74,21.04 247.2,21.08 246.02,21.08 C244.28,21.08 244.06,21.06 243.66,20.92 C243.36,20.8 243.2,20.58 243.2,20.28 C243.2,19.72 243.54,19.3 244.1,19.16 C244.5,19.06 245.18,19 246.18,19 Z M262.8,19 L262.72,19.38 C262.48,20.5 262.14,20.76 260.96,20.76 C260.02,20.76 259.68,20.52 259.68,19.9 C259.68,19.7 259.72,19.46 259.8,19.08 L260.44,16 L266.06,16 L266.56,13.66 L260.94,13.66 L261.42,11.46 L257.92,11.46 L257.44,13.66 L255.68,13.66 L255.18,16 L256.94,16 L256.14,19.8 C256.04,20.34 255.98,20.72 255.98,21.04 C255.98,21.76 256.26,22.3 256.84,22.7 C257.42,23.08 258.3,23.22 260.4,23.22 C262.2,23.22 263.24,22.98 264.04,22.36 C264.66,21.88 264.94,21.28 265.28,19.74 L265.44,19 L262.8,19 Z M267.08,23 L270.52,23 L272.5,13.66 L269.06,13.66 L267.08,23 Z M269.38,12.16 L272.82,12.16 L273.36,9.66 L269.92,9.66 L269.38,12.16 Z M281.7,13.44 C276.46,13.44 275.1,14.12 274.32,17.2 C273.94,18.66 273.7,20.04 273.7,20.66 C273.7,21.62 274.02,22.22 274.78,22.64 C275.48,23.04 276.96,23.22 279.5,23.22 C281.98,23.22 283.76,23.04 284.62,22.72 C286.1,22.12 286.66,21.36 287.2,19.16 C287.56,17.64 287.76,16.5 287.76,15.94 C287.76,14.7 287.06,13.96 285.68,13.7 C284.78,13.54 283.26,13.44 281.7,13.44 Z M281.16,15.98 C282.4,15.98 283.08,16.04 283.42,16.16 C283.88,16.32 284.1,16.64 284.1,17.12 C284.1,17.44 284,18.04 283.84,18.7 C283.66,19.46 283.54,19.74 283.24,20.06 C282.78,20.56 282.18,20.68 280.24,20.68 C277.94,20.68 277.34,20.44 277.34,19.5 C277.34,19.14 277.44,18.56 277.6,17.92 C277.82,17.1 277.98,16.8 278.34,16.5 C278.84,16.1 279.44,15.98 281.16,15.98 Z M288.92,23 L292.36,23 L293.26,18.78 C293.7,16.72 294.48,16.12 296.78,16.12 C298.72,16.12 299.28,16.4 299.28,17.4 C299.28,17.64 299.24,17.9 299.18,18.18 L298.16,23 L301.6,23 L302.66,18.04 C302.82,17.28 302.9,16.66 302.9,16.14 C302.9,15.2 302.42,14.38 301.64,13.98 C300.92,13.6 300.04,13.44 298.62,13.44 C295.78,13.44 294.68,13.98 293.8,15.82 L294.26,13.66 L290.9,13.66 L288.92,23 Z M304.7,20.12 C304.6,20.52 304.58,20.72 304.58,20.96 C304.58,21.74 304.88,22.34 305.44,22.64 C306.24,23.1 307.14,23.22 310.06,23.22 C314.84,23.22 316.32,22.84 317.18,21.42 C317.54,20.82 317.82,19.78 317.82,19 C317.82,17.54 316.8,17.06 313.68,17.06 L311.26,17.06 C309.5,17.06 309.12,16.96 309.12,16.48 C309.12,15.82 309.88,15.58 312.12,15.58 C313.94,15.58 314.42,15.7 314.42,16.16 L314.42,16.24 L318.02,16.24 C318.1,15.88 318.12,15.68 318.12,15.44 C318.12,13.82 317.06,13.44 312.58,13.44 C309.84,13.44 308.16,13.64 307.32,14.04 C306.22,14.56 305.44,15.96 305.44,17.42 C305.44,18.98 306.48,19.46 309.8,19.46 L311.52,19.46 C312.86,19.46 313.36,19.48 313.68,19.54 C313.98,19.6 314.16,19.82 314.16,20.1 C314.16,20.84 313.4,21.1 311.3,21.1 C308.88,21.1 308.3,20.94 308.3,20.34 C308.3,20.28 308.3,20.22 308.32,20.12 L304.7,20.12 Z M321.951,20.954 L319.773,20.954 L319.333,23 L321.522,23 L321.951,20.954 Z M330.894,20.239 C330.773,20.767 330.619,20.987 330.278,21.119 C329.959,21.251 329.695,21.273 328.012,21.273 C326.285,21.273 325.966,21.141 325.966,20.459 C325.966,20.107 326.043,19.667 326.241,18.82 C326.472,17.874 326.659,17.61 327.242,17.456 C327.484,17.39 328.045,17.368 329.244,17.368 C331.037,17.368 331.279,17.434 331.279,17.94 C331.279,18.017 331.268,18.094 331.246,18.237 L333.38,18.237 C333.501,17.709 333.545,17.412 333.545,17.093 C333.545,16.4 333.259,16.015 332.61,15.806 C332.126,15.652 331.356,15.608 329.134,15.608 C327.396,15.608 326.659,15.674 326.043,15.894 C324.965,16.279 324.503,16.895 324.118,18.468 C323.821,19.656 323.645,20.69 323.645,21.24 C323.645,21.9 323.81,22.329 324.162,22.571 C324.701,22.956 325.35,23.055 327.396,23.055 C328.331,23.055 329.376,23.044 329.717,23.033 C331.235,22.978 331.939,22.736 332.423,22.087 C332.687,21.735 332.808,21.394 333.05,20.239 L330.894,20.239 Z M340.409,15.586 C338.539,15.586 337.824,15.63 337.186,15.806 C335.888,16.158 335.36,16.862 334.942,18.798 C334.623,20.25 334.524,20.822 334.524,21.251 C334.524,21.988 334.766,22.494 335.228,22.725 C335.833,23.022 336.427,23.077 338.99,23.077 C339.969,23.077 340.926,23.055 341.388,23.033 C342.587,22.956 343.313,22.648 343.863,21.988 C344.27,21.493 344.501,20.877 344.776,19.634 C345.062,18.314 345.139,17.819 345.139,17.434 C345.139,16.686 344.897,16.169 344.435,15.938 C343.797,15.619 343.368,15.586 340.409,15.586 Z M340.288,17.379 C342.543,17.379 342.796,17.456 342.796,18.149 C342.796,18.446 342.708,18.941 342.521,19.766 C342.257,20.833 341.938,21.163 341.08,21.24 C340.695,21.273 340.134,21.284 339.144,21.284 C337.252,21.284 336.922,21.163 336.922,20.481 C336.922,19.854 337.263,18.402 337.505,17.984 C337.802,17.456 338.165,17.379 340.288,17.379 Z M345.821,23 L347.977,23 L349.121,17.335 L351.112,23 L352.905,23 L357.36,17.335 L356.04,23 L358.218,23 L359.78,15.663 L356.26,15.663 L352.564,20.536 L350.925,15.663 L347.383,15.663 L345.821,23 Z" fill="#000000"></path>
                        <g fill="url(#linearGradient-1)">
                            <path d="M15.5457698,21.9732507 C10.1977235,21.9732507 5.28232113,23.644572 1.38634644,26.4373191 C5.28232113,29.2300662 10.1977235,30.9013874 15.5457698,30.9013874 C20.8938162,30.9013874 25.8092185,29.2300662 29.7051932,26.4373191 C25.8092185,23.644572 20.8938162,21.9732507 15.5457698,21.9732507 Z M27.6792283,10.0313271 C25.0052959,5.4320386 21.0900764,2.04035631 16.7066283,0.0861545139 C16.2191549,4.83310342 17.2193378,9.89610693 19.8932702,14.4953954 C22.5673841,19.0948642 26.482422,22.4863662 30.8660517,24.440568 C31.3535251,19.6936191 30.3533422,14.6307959 27.6792283,10.0313271 Z M14.3849113,0.0861545139 C10.0014632,2.04035631 6.08624377,5.4320386 3.41212982,10.0315074 C0.738197425,14.6307959 -0.261985463,19.6937994 0.225487954,24.4407483 C4.60893607,22.4863662 8.52415552,19.0948642 11.1980879,14.4953954 C13.8722019,9.89610693 14.8723848,4.83310342 14.3849113,0.0861545139 Z M18.5256213,16.7557357 C18.5256213,18.3900967 17.19156,19.715074 15.5457698,19.715074 C13.8999797,19.715074 12.5659184,18.3900967 12.5659184,16.7557357 C12.5659184,15.1215549 13.8999797,13.7965776 15.5457698,13.7965776 C17.19156,13.7965776 18.5256213,15.1215549 18.5256213,16.7557357 Z"></path>
                        </g>
                    </g>
                </g>
            </g>
        </g>
    </g>
</svg>