<?xml version="1.0" encoding="UTF-8" standalone="no"?>
<svg width="280px" height="58px" viewBox="0 0 280 58" version="1.1" xmlns="http://www.w3.org/2000/svg" xmlns:xlink="http://www.w3.org/1999/xlink">
    <!-- Generator: sketchtool 41.2 (35397) - http://www.bohemiancoding.com/sketch -->
    <title>B67FFC95-3F77-4103-B9B0-DA4116C547A1</title>
    <desc>Created with sketchtool.</desc>
    <defs></defs>
    <g id="Page-1" stroke="none" stroke-width="1" fill="none" fill-rule="evenodd">
        <g id="Landing-page---Desktop" transform="translate(-580.000000, -156.000000)">
            <g id="Group-3" transform="translate(580.000000, 156.000000)">
                <g id="Group-5" transform="translate(0.000000, 41.568627)" fill="#000000">
                    <path d="M0.672330383,12.4705882 L12.120118,12.4705882 C14.0825959,12.4705882 14.9911504,12.2328157 15.7725074,11.4829176 C16.5720354,10.7513098 17.0989971,9.39783529 17.0989971,8.09923137 C17.0989971,6.87378824 16.5538643,6.47140392 14.7185841,6.28850196 C15.8815339,6.1056 16.3721534,5.88611765 16.8627729,5.33741176 C17.4079056,4.7155451 17.8076696,3.47181176 17.8076696,2.3926902 C17.8076696,1.60621176 17.5169322,1.07579608 16.8627729,0.709992157 C16.3176401,0.380768627 15.5907965,0.271027451 14.1916224,0.271027451 L3.25262537,0.271027451 L0.672330383,12.4705882 Z M5.81474926,5.13621961 L6.26902655,2.97797647 L12.3745133,2.97797647 C13.0831858,2.97797647 13.2467257,2.99626667 13.4647788,3.06942745 C13.7918584,3.17916863 13.9372271,3.41694118 13.9372271,3.80103529 C13.9372271,4.20341961 13.7373451,4.66067451 13.4284366,4.88015686 C13.1558702,5.08134902 12.8651327,5.13621961 12.0110914,5.13621961 L5.81474926,5.13621961 Z M4.85168142,9.76363922 L5.3059587,7.53223529 L11.8112094,7.53223529 C12.6289086,7.53223529 12.7742773,7.55052549 12.9741593,7.62368627 C13.2648968,7.73342745 13.4102655,7.9712 13.4102655,8.35529412 C13.4102655,8.84912941 13.1558702,9.3612549 12.7924484,9.58073725 C12.5017109,9.74534902 12.32,9.76363922 11.4477876,9.76363922 L4.85168142,9.76363922 Z M25.7393509,3.72787451 C20.9785249,3.72787451 19.7428907,4.34974118 19.0342182,7.16643137 C18.6889674,8.50161569 18.4709143,9.76363922 18.4709143,10.3306353 C18.4709143,11.2085647 18.7616518,11.7572706 19.4521533,12.1413647 C20.0881415,12.5071686 21.4328022,12.6717804 23.7405308,12.6717804 C25.9937462,12.6717804 27.6109733,12.5071686 28.3923302,12.2145255 C29.736991,11.6658196 30.2457816,10.9707922 30.736401,8.95887059 C31.0634807,7.56881569 31.2451916,6.52627451 31.2451916,6.01414902 C31.2451916,4.88015686 30.6092034,4.20341961 29.3553981,3.96564706 C28.537699,3.81932549 27.156696,3.72787451 25.7393509,3.72787451 Z M25.2487314,6.05072941 C26.3753391,6.05072941 26.9931562,6.1056 27.3020648,6.21534118 C27.7199999,6.36166275 27.9198819,6.65430588 27.9198819,7.09327059 C27.9198819,7.38591373 27.8290264,7.93461961 27.6836577,8.53819608 C27.5201179,9.23322353 27.4110913,9.48928627 27.1385249,9.78192941 C26.7205898,10.2391843 26.1754571,10.3489255 24.4128612,10.3489255 C22.3231857,10.3489255 21.778053,10.1294431 21.778053,9.26980392 C21.778053,8.94058039 21.8689084,8.41016471 22.0142771,7.82487843 C22.2141592,7.07498039 22.3595279,6.80062745 22.6866075,6.52627451 C23.1408848,6.16047059 23.6860176,6.05072941 25.2487314,6.05072941 Z M40.3761649,12.4705882 L43.3925661,12.4705882 L45.9728611,0.271027451 L42.8474334,0.271027451 L41.7571679,5.41057255 C41.4300882,4.56922353 41.193864,4.29487059 40.6669024,4.07538824 C40.0854275,3.85590588 39.195044,3.72787451 38.0866074,3.72787451 C35.5063124,3.72787451 33.8890853,4.27658039 33.1440705,5.39228235 C32.5625956,6.28850196 31.853923,9.01374118 31.853923,10.4220863 C31.853923,11.519498 32.3627136,12.1047843 33.6165189,12.4157176 C34.3070204,12.5620392 35.415457,12.6717804 36.5238935,12.6717804 C38.9043065,12.6717804 39.9037165,12.1779451 40.7759289,10.6049882 L40.3761649,12.4705882 Z M38.5590558,6.06901961 C40.8486133,6.06901961 41.3574039,6.27021176 41.3574039,7.14814118 C41.3574039,8.09923137 40.993982,9.32467451 40.5760469,9.76363922 C40.1762829,10.1843137 39.4676103,10.3306353 37.7413567,10.3306353 C35.6698522,10.3306353 35.1792328,10.1294431 35.1792328,9.25151373 C35.1792328,8.97716078 35.2700882,8.37358431 35.3972859,7.89803922 C35.5608257,7.27617255 35.7061944,6.98352941 35.9787608,6.67259608 C36.4330381,6.17876078 36.9236575,6.06901961 38.5590558,6.06901961 Z M48.071622,12.4705882 L49.4162828,12.4705882 L48.9620055,13.1473255 C48.3987017,13.9886745 48.0352798,14.1532863 46.7814745,14.1532863 L46.3998816,14.1532863 L45.9456043,16.274949 C46.472566,16.3115294 46.7633034,16.3298196 47.2539229,16.3298196 C49.452625,16.3298196 49.9795866,16.0554667 51.2152208,14.2447373 L58.2292621,3.92906667 L54.7222415,3.92906667 L50.6700881,10.2574745 L49.5071382,3.92906667 L46.0364598,3.92906667 L48.071622,12.4705882 Z M62.0542767,12.4705882 L65.7430083,12.4705882 L67.6873151,3.2889098 L73.0841292,3.2889098 L73.7201174,0.271027451 L59.2377576,0.271027451 L58.6017694,3.2889098 L63.9985835,3.2889098 L62.0542767,12.4705882 Z M70.2040111,12.4705882 L73.3294388,12.4705882 L74.165309,8.53819608 C74.5287309,6.81891765 75.2192323,6.19705098 76.7819462,6.19705098 C77.7813562,6.19705098 78.2174624,6.47140392 78.2174624,7.07498039 C78.2174624,7.25788235 78.1992913,7.40420392 78.126607,7.69684706 L81.0521527,7.69684706 C81.2883769,6.76404706 81.3792323,6.19705098 81.3792323,5.72150588 C81.3792323,4.34974118 80.4888489,3.72787451 78.526371,3.72787451 C77.3997633,3.72787451 76.3821822,3.96564706 75.7643651,4.38632157 C75.34643,4.66067451 75.1647191,4.88015686 74.6014152,5.83124706 L75.0011793,3.92906667 L72.0029492,3.92906667 L70.2040111,12.4705882 Z M88.8384652,12.4705882 L91.963893,12.4705882 L93.0905006,7.18472157 C93.2722116,6.30679216 93.2722116,6.30679216 93.2722116,5.97756863 C93.2722116,5.1910902 92.9996452,4.58751373 92.4908546,4.29487059 C91.7821821,3.87419608 90.8009431,3.72787451 88.5295567,3.72787451 C85.7493797,3.72787451 84.7499697,3.85590588 83.8414151,4.29487059 C82.8420051,4.77041569 82.42407,5.30083137 82.1333325,6.41653333 L85.2587602,6.41653333 C85.4586422,5.79466667 85.6766953,5.72150588 87.602831,5.72150588 C89.5653089,5.72150588 89.983244,5.86782745 89.983244,6.52627451 C89.983244,6.63601569 89.9650729,6.81891765 89.8742175,7.18472157 L89.6743355,8.11752157 C89.5471378,7.27617255 88.9293207,7.0566902 86.8759874,7.0566902 C85.9856039,7.0566902 84.9861939,7.07498039 84.5864299,7.11156078 C83.1509136,7.20301176 82.3332145,7.5139451 81.7517396,8.19068235 C81.2974623,8.73938824 80.9158694,9.98312157 80.9158694,10.9159216 C80.9158694,12.2876863 81.7880818,12.6717804 84.8771673,12.6717804 C87.6391732,12.6717804 88.4750434,12.3425569 89.1655449,10.952502 L88.8384652,12.4705882 Z M86.8396452,8.81254902 C88.9474918,8.81254902 89.4199402,8.94058039 89.4199402,9.52586667 C89.4199402,10.0014118 89.0928605,10.4403765 88.6204122,10.5684078 C88.2569903,10.678149 87.7663709,10.7147294 86.6942765,10.7147294 C85.1133915,10.7147294 84.9135095,10.6964392 84.5500877,10.5684078 C84.2775213,10.4586667 84.1321526,10.2574745 84.1321526,9.98312157 C84.1321526,9.47099608 84.4410611,9.08690196 84.9498517,8.95887059 C85.3132735,8.86741961 85.9310906,8.81254902 86.8396452,8.81254902 Z M93.9536274,12.4705882 L97.0790551,12.4705882 L97.8967542,8.61135686 C98.2965182,6.72746667 99.0051908,6.17876078 101.094866,6.17876078 C102.857462,6.17876078 103.366253,6.43482353 103.366253,7.34933333 C103.366253,7.56881569 103.329911,7.80658824 103.275397,8.06265098 L102.348672,12.4705882 L105.474099,12.4705882 L106.437167,7.93461961 C106.582536,7.23959216 106.65522,6.67259608 106.65522,6.19705098 C106.65522,5.33741176 106.219114,4.58751373 105.510442,4.2217098 C104.856282,3.87419608 104.056754,3.72787451 102.766607,3.72787451 C100.186312,3.72787451 99.1869017,4.2217098 98.3873737,5.90440784 L98.8053088,3.92906667 L95.7525654,3.92906667 L93.9536274,12.4705882 Z M107.609202,9.8368 C107.518347,10.2026039 107.500176,10.3855059 107.500176,10.6049882 C107.500176,11.3183059 107.772742,11.8670118 108.281533,12.1413647 C109.008376,12.5620392 109.826076,12.6717804 112.479055,12.6717804 C116.821946,12.6717804 118.166607,12.3242667 118.947963,11.0256627 C119.275043,10.4769569 119.529438,9.52586667 119.529438,8.81254902 C119.529438,7.47736471 118.602713,7.0384 115.768022,7.0384 L113.56932,7.0384 C111.970264,7.0384 111.625014,6.94694902 111.625014,6.50798431 C111.625014,5.90440784 112.315515,5.68492549 114.350677,5.68492549 C116.004247,5.68492549 116.440353,5.79466667 116.440353,6.21534118 L116.440353,6.28850196 L119.711149,6.28850196 C119.783834,5.95927843 119.802005,5.77637647 119.802005,5.55689412 C119.802005,4.07538824 118.838937,3.72787451 114.768612,3.72787451 C112.279173,3.72787451 110.752801,3.91077647 109.989615,4.27658039 C108.990205,4.75212549 108.281533,6.03243922 108.281533,7.36762353 C108.281533,8.79425882 109.22643,9.23322353 112.242831,9.23322353 L113.805545,9.23322353 C115.023008,9.23322353 115.477285,9.25151373 115.768022,9.30638431 C116.040589,9.3612549 116.204129,9.56244706 116.204129,9.8185098 C116.204129,10.4952471 115.513627,10.7330196 113.605663,10.7330196 C111.406961,10.7330196 110.879999,10.586698 110.879999,10.0379922 C110.879999,9.98312157 110.879999,9.92825098 110.89817,9.8368 L107.609202,9.8368 Z M121.173922,12.4705882 L124.29935,12.4705882 L125.662182,6.06901961 L128.787609,6.06901961 L129.241887,3.92906667 L126.116459,3.92906667 L126.170972,3.67300392 C126.407196,2.50243137 126.879645,2.17320784 128.224306,2.17320784 C128.533214,2.17320784 128.860294,2.19149804 129.423598,2.20978824 L129.859704,0.142996078 C129.096518,0.0881254902 128.660412,0.0698352941 128.151621,0.0698352941 C126.407196,0.0698352941 125.589497,0.197866667 124.862654,0.60025098 C123.881415,1.16724706 123.408966,1.95372549 123.045544,3.65471373 L122.991031,3.92906667 L121.30112,3.92906667 L120.846842,6.06901961 L122.536754,6.06901961 L121.173922,12.4705882 Z M135.956105,3.72787451 C131.195279,3.72787451 129.959645,4.34974118 129.250972,7.16643137 C128.905721,8.50161569 128.687668,9.76363922 128.687668,10.3306353 C128.687668,11.2085647 128.978406,11.7572706 129.668907,12.1413647 C130.304895,12.5071686 131.649556,12.6717804 133.957285,12.6717804 C136.2105,12.6717804 137.827727,12.5071686 138.609084,12.2145255 C139.953745,11.6658196 140.462535,10.9707922 140.953155,8.95887059 C141.280235,7.56881569 141.461946,6.52627451 141.461946,6.01414902 C141.461946,4.88015686 140.825957,4.20341961 139.572152,3.96564706 C138.754453,3.81932549 137.37345,3.72787451 135.956105,3.72787451 Z M135.465485,6.05072941 C136.592093,6.05072941 137.20991,6.1056 137.518819,6.21534118 C137.936754,6.36166275 138.136636,6.65430588 138.136636,7.09327059 C138.136636,7.38591373 138.04578,7.93461961 137.900412,8.53819608 C137.736872,9.23322353 137.627845,9.48928627 137.355279,9.78192941 C136.937344,10.2391843 136.392211,10.3489255 134.629615,10.3489255 C132.53994,10.3489255 131.994807,10.1294431 131.994807,9.26980392 C131.994807,8.94058039 132.085662,8.41016471 132.231031,7.82487843 C132.430913,7.07498039 132.576282,6.80062745 132.903361,6.52627451 C133.357639,6.16047059 133.902771,6.05072941 135.465485,6.05072941 Z M141.834453,12.4705882 L144.95988,12.4705882 L145.795751,8.53819608 C146.159173,6.81891765 146.849674,6.19705098 148.412388,6.19705098 C149.411798,6.19705098 149.847904,6.47140392 149.847904,7.07498039 C149.847904,7.25788235 149.829733,7.40420392 149.757049,7.69684706 L152.682594,7.69684706 C152.918819,6.76404706 153.009674,6.19705098 153.009674,5.72150588 C153.009674,4.34974118 152.119291,3.72787451 150.156813,3.72787451 C149.030205,3.72787451 148.012624,3.96564706 147.394807,4.38632157 C146.976872,4.66067451 146.795161,4.88015686 146.231857,5.83124706 L146.631621,3.92906667 L143.633391,3.92906667 L141.834453,12.4705882 Z M152.509969,12.4705882 L155.635397,12.4705882 L156.543951,8.15410196 C156.85286,6.67259608 157.579703,6.17876078 159.433155,6.17876078 C160.959526,6.17876078 161.431975,6.43482353 161.431975,7.25788235 C161.431975,7.45907451 161.395633,7.77000784 161.304777,8.15410196 L160.396223,12.4705882 L163.52165,12.4705882 L164.375692,8.41016471 C164.739113,6.67259608 165.393273,6.19705098 167.301237,6.19705098 C168.809438,6.19705098 169.318228,6.48969412 169.318228,7.33104314 C169.318228,7.47736471 169.281886,7.75171765 169.227373,7.9894902 L168.282476,12.4705882 L171.407904,12.4705882 L172.407314,7.75171765 C172.516341,7.23959216 172.570854,6.78233725 172.570854,6.37995294 C172.570854,4.55093333 171.353391,3.72787451 168.645898,3.72787451 C166.392683,3.72787451 165.211562,4.29487059 164.539231,5.70321569 C164.321178,4.36803137 163.158228,3.72787451 160.977697,3.72787451 C158.778995,3.72787451 157.725072,4.24 156.980057,5.66663529 L157.343479,3.92906667 L154.308907,3.92906667 L152.509969,12.4705882 Z M181.374747,12.4705882 L184.500175,12.4705882 L185.626783,7.18472157 C185.808494,6.30679216 185.808494,6.30679216 185.808494,5.97756863 C185.808494,5.1910902 185.535927,4.58751373 185.027137,4.29487059 C184.318464,3.87419608 183.337225,3.72787451 181.065839,3.72787451 C178.285662,3.72787451 177.286252,3.85590588 176.377697,4.29487059 C175.378287,4.77041569 174.960352,5.30083137 174.669615,6.41653333 L177.795042,6.41653333 C177.994924,5.79466667 178.212978,5.72150588 180.139113,5.72150588 C182.101591,5.72150588 182.519526,5.86782745 182.519526,6.52627451 C182.519526,6.63601569 182.501355,6.81891765 182.4105,7.18472157 L182.210618,8.11752157 C182.08342,7.27617255 181.465603,7.0566902 179.41227,7.0566902 C178.521886,7.0566902 177.522476,7.07498039 177.122712,7.11156078 C175.687196,7.20301176 174.869497,7.5139451 174.288022,8.19068235 C173.833745,8.73938824 173.452152,9.98312157 173.452152,10.9159216 C173.452152,12.2876863 174.324364,12.6717804 177.41345,12.6717804 C180.175455,12.6717804 181.011326,12.3425569 181.701827,10.952502 L181.374747,12.4705882 Z M179.375927,8.81254902 C181.483774,8.81254902 181.956222,8.94058039 181.956222,9.52586667 C181.956222,10.0014118 181.629143,10.4403765 181.156694,10.5684078 C180.793273,10.678149 180.302653,10.7147294 179.230559,10.7147294 C177.649674,10.7147294 177.449792,10.6964392 177.08637,10.5684078 C176.813804,10.4586667 176.668435,10.2574745 176.668435,9.98312157 C176.668435,9.47099608 176.977343,9.08690196 177.486134,8.95887059 C177.849556,8.86741961 178.467373,8.81254902 179.375927,8.81254902 Z M193.794688,8.81254902 L193.722004,9.16006275 C193.503951,10.1843137 193.195042,10.4220863 192.122948,10.4220863 C191.268907,10.4220863 190.959998,10.2026039 190.959998,9.63560784 C190.959998,9.45270588 190.99634,9.23322353 191.069025,8.8857098 L191.6505,6.06901961 L196.756576,6.06901961 L197.210854,3.92906667 L192.104777,3.92906667 L192.540883,1.9171451 L189.360942,1.9171451 L188.924836,3.92906667 L187.32578,3.92906667 L186.871502,6.06901961 L188.470559,6.06901961 L187.743715,9.54415686 C187.652859,10.0379922 187.598346,10.3855059 187.598346,10.678149 C187.598346,11.3365961 187.852741,11.8304314 188.379703,12.1962353 C188.906665,12.543749 189.706193,12.6717804 191.614157,12.6717804 C193.249556,12.6717804 194.194452,12.452298 194.921296,11.885302 C195.4846,11.4463373 195.738995,10.8976314 196.047904,9.48928627 L196.193272,8.81254902 L193.794688,8.81254902 Z M197.001886,12.4705882 L200.127314,12.4705882 L201.926252,3.92906667 L198.800824,3.92906667 L197.001886,12.4705882 Z M199.091561,2.55730196 L202.216989,2.55730196 L202.707609,0.271027451 L199.582181,0.271027451 L199.091561,2.55730196 Z M209.603538,3.72787451 C204.842712,3.72787451 203.607077,4.34974118 202.898405,7.16643137 C202.553154,8.50161569 202.335101,9.76363922 202.335101,10.3306353 C202.335101,11.2085647 202.625839,11.7572706 203.31634,12.1413647 C203.952328,12.5071686 205.296989,12.6717804 207.604718,12.6717804 C209.857933,12.6717804 211.47516,12.5071686 212.256517,12.2145255 C213.601178,11.6658196 214.109968,10.9707922 214.600588,8.95887059 C214.927667,7.56881569 215.109378,6.52627451 215.109378,6.01414902 C215.109378,4.88015686 214.47339,4.20341961 213.219585,3.96564706 C212.401886,3.81932549 211.020883,3.72787451 209.603538,3.72787451 Z M209.112918,6.05072941 C210.239526,6.05072941 210.857343,6.1056 211.166251,6.21534118 C211.584187,6.36166275 211.784069,6.65430588 211.784069,7.09327059 C211.784069,7.38591373 211.693213,7.93461961 211.547844,8.53819608 C211.384305,9.23322353 211.275278,9.48928627 211.002712,9.78192941 C210.584777,10.2391843 210.039644,10.3489255 208.277048,10.3489255 C206.187372,10.3489255 205.64224,10.1294431 205.64224,9.26980392 C205.64224,8.94058039 205.733095,8.41016471 205.878464,7.82487843 C206.078346,7.07498039 206.223715,6.80062745 206.550794,6.52627451 C207.005072,6.16047059 207.550204,6.05072941 209.112918,6.05072941 Z M215.481886,12.4705882 L218.607313,12.4705882 L219.425012,8.61135686 C219.824776,6.72746667 220.533449,6.17876078 222.623125,6.17876078 C224.38572,6.17876078 224.894511,6.43482353 224.894511,7.34933333 C224.894511,7.56881569 224.858169,7.80658824 224.803655,8.06265098 L223.87693,12.4705882 L227.002358,12.4705882 L227.965425,7.93461961 C228.110794,7.23959216 228.183478,6.67259608 228.183478,6.19705098 C228.183478,5.33741176 227.747372,4.58751373 227.0387,4.2217098 C226.38454,3.87419608 225.585012,3.72787451 224.294865,3.72787451 C221.71457,3.72787451 220.71516,4.2217098 219.915632,5.90440784 L220.333567,3.92906667 L217.280824,3.92906667 L215.481886,12.4705882 Z M229.137461,9.8368 C229.046605,10.2026039 229.028434,10.3855059 229.028434,10.6049882 C229.028434,11.3183059 229.301,11.8670118 229.809791,12.1413647 C230.536635,12.5620392 231.354334,12.6717804 234.007313,12.6717804 C238.350204,12.6717804 239.694865,12.3242667 240.476222,11.0256627 C240.803301,10.4769569 241.057697,9.52586667 241.057697,8.81254902 C241.057697,7.47736471 240.130971,7.0384 237.296281,7.0384 L235.097579,7.0384 C233.498523,7.0384 233.153272,6.94694902 233.153272,6.50798431 C233.153272,5.90440784 233.843773,5.68492549 235.878936,5.68492549 C237.532505,5.68492549 237.968611,5.79466667 237.968611,6.21534118 L237.968611,6.28850196 L241.239408,6.28850196 C241.312092,5.95927843 241.330263,5.77637647 241.330263,5.55689412 C241.330263,4.07538824 240.367195,3.72787451 236.296871,3.72787451 C233.807431,3.72787451 232.281059,3.91077647 231.517874,4.27658039 C230.518464,4.75212549 229.809791,6.03243922 229.809791,7.36762353 C229.809791,8.79425882 230.754688,9.23322353 233.771089,9.23322353 L235.333803,9.23322353 C236.551266,9.23322353 237.005543,9.25151373 237.296281,9.30638431 C237.568847,9.3612549 237.732387,9.56244706 237.732387,9.8185098 C237.732387,10.4952471 237.041885,10.7330196 235.133921,10.7330196 C232.935219,10.7330196 232.408257,10.586698 232.408257,10.0379922 C232.408257,9.98312157 232.408257,9.92825098 232.426428,9.8368 L229.137461,9.8368 Z M246.390912,9.06861176 L242.793036,9.06861176 L242.066192,12.4705882 L245.682239,12.4705882 L246.390912,9.06861176 Z M254.461354,9.96649412 C254.352328,10.4453647 254.213567,10.6448941 253.90631,10.7646118 C253.618876,10.8843294 253.381,10.9042824 251.86454,10.9042824 C250.308434,10.9042824 250.021,10.7845647 250.021,10.1660235 C250.021,9.84677647 250.090381,9.44771765 250.268788,8.67952941 C250.476929,7.82155294 250.645425,7.58211765 251.170735,7.44244706 C251.388788,7.38258824 251.894275,7.36263529 252.974629,7.36263529 C254.590204,7.36263529 254.808257,7.42249412 254.808257,7.88141176 C254.808257,7.95124706 254.798345,8.02108235 254.778522,8.15077647 L256.701354,8.15077647 C256.810381,7.67190588 256.850027,7.40254118 256.850027,7.11322353 C256.850027,6.48470588 256.592328,6.13552941 256.007549,5.94597647 C255.571443,5.80630588 254.877637,5.7664 252.875513,5.7664 C251.309496,5.7664 250.645425,5.82625882 250.090381,6.02578824 C249.119053,6.37496471 248.70277,6.93364706 248.355867,8.36028235 C248.088257,9.43774118 247.929673,10.3755294 247.929673,10.8743529 C247.929673,11.4729412 248.078345,11.8620235 248.395513,12.0815059 C248.881177,12.4306824 249.465956,12.5204706 251.309496,12.5204706 C252.151974,12.5204706 253.093567,12.5104941 253.400823,12.5005176 C254.768611,12.4506353 255.402947,12.2311529 255.839053,11.6425412 C256.076929,11.3232941 256.185956,11.0140235 256.404009,9.96649412 L254.461354,9.96649412 Z M262.663124,5.74644706 C260.978168,5.74644706 260.333921,5.78635294 259.759053,5.94597647 C258.589496,6.26522353 258.113744,6.90371765 257.737106,8.65957647 C257.449673,9.97647059 257.360469,10.4952471 257.360469,10.8843294 C257.360469,11.5527529 257.578522,12.0116706 257.994806,12.2211765 C258.539938,12.4905412 259.075159,12.5404235 261.38454,12.5404235 C262.266664,12.5404235 263.128965,12.5204706 263.545248,12.5005176 C264.625602,12.4306824 265.279761,12.1513412 265.775336,11.5527529 C266.142062,11.1038118 266.350204,10.5451294 266.597991,9.41778824 C266.85569,8.22061176 266.925071,7.77167059 266.925071,7.42249412 C266.925071,6.74409412 266.707018,6.2752 266.290735,6.06569412 C265.715867,5.77637647 265.329319,5.74644706 262.663124,5.74644706 Z M262.554098,7.37261176 C264.585956,7.37261176 264.813921,7.44244706 264.813921,8.07096471 C264.813921,8.34032941 264.734629,8.78927059 264.566133,9.53750588 C264.328257,10.5052235 264.040823,10.8045176 263.267726,10.8743529 C262.920823,10.9042824 262.415336,10.9142588 261.523301,10.9142588 C259.818522,10.9142588 259.521177,10.8045176 259.521177,10.1859765 C259.521177,9.61731765 259.828434,8.30042353 260.046487,7.92131765 C260.314098,7.44244706 260.641177,7.37261176 262.554098,7.37261176 Z M267.167903,12.4705882 L269.110558,12.4705882 L270.141354,7.33270588 L271.935336,12.4705882 L273.550912,12.4705882 L277.565071,7.33270588 L276.37569,12.4705882 L278.338168,12.4705882 L279.745602,5.81628235 L276.573921,5.81628235 L273.243655,10.2358588 L271.766841,5.81628235 L268.575336,5.81628235 L267.167903,12.4705882 Z" id="BodyTransformations."></path>
                </g>
                <g id="Group-2-Copy-2" transform="translate(112.330383, 0.000000)" fill="#0A55F7">
                    <path d="M17.396351,24.7501359 C11.4116689,24.7501359 5.91113298,26.6326716 1.55137826,29.7783541 C5.91113298,32.9240366 11.4116689,34.8065722 17.396351,34.8065722 C23.3810332,34.8065722 28.8815691,32.9240366 33.2413238,29.7783541 C28.8815691,26.6326716 23.3810332,24.7501359 17.396351,24.7501359" id="Fill-6"></path>
                    <path d="M30.9741864,11.2990432 C27.9819468,6.11851634 23.6006565,2.2982078 18.6953991,0.0970423519 C18.1498964,5.44389031 19.2691419,11.1467345 22.2613814,16.3272613 C25.2538241,21.5079912 29.6349113,25.3280967 34.5403719,27.5292622 C35.0858745,22.1824142 33.966629,16.4797731 30.9741864,11.2990432" id="Fill-7"></path>
                    <path d="M16.097303,0.0970423519 C11.1920456,2.2982078 6.81075523,6.11851634 3.81831256,11.2992463 C0.826073054,16.4797731 -0.293172427,22.1826173 0.252330226,27.5294652 C5.1575876,25.3280967 9.538878,21.5079912 12.5311175,16.3272613 C15.5235602,11.1467345 16.6428057,5.44389031 16.097303,0.0970423519" id="Fill-8"></path>
                    <path d="M20.7309265,18.8732537 C20.7309265,20.7141583 19.2380574,22.2065805 17.396351,22.2065805 C15.5546447,22.2065805 14.0617756,20.7141583 14.0617756,18.8732537 C14.0617756,17.0325522 15.5546447,15.5401299 17.396351,15.5401299 C19.2380574,15.5401299 20.7309265,17.0325522 20.7309265,18.8732537" id="Fill-9"></path>
                </g>
            </g>
        </g>
    </g>
</svg>