<?xml version="1.0" encoding="UTF-8" standalone="no"?>
<svg width="104px" height="119px" viewBox="0 0 104 119" version="1.1" xmlns="http://www.w3.org/2000/svg" xmlns:xlink="http://www.w3.org/1999/xlink">
    <!-- Generator: Sketch 41.2 (35397) - http://www.bohemiancoding.com/sketch -->
    <title>Group 2</title>
    <desc>Created with Sketch.</desc>
    <defs>
        <linearGradient x1="50%" y1="0%" x2="50%" y2="98.4375%" id="linearGradient-1">
            <stop stop-color="#68B9FF" offset="0%"></stop>
            <stop stop-color="#1F75EB" offset="100%"></stop>
        </linearGradient>
        <path d="M40.0831906,0.415047264 C41.031202,-0.141521237 42.5790541,-0.135167822 43.5162436,0.415047264 L81.8829078,22.9397519 C82.8309192,23.4963204 83.5994343,24.8412883 83.5994343,25.9476378 L83.5994343,71.0278138 C83.5994343,72.1324548 82.8200973,73.4854846 81.8829078,74.0356997 L43.5162436,96.5604043 C42.5682322,97.1169729 41.0203802,97.1106194 40.0831906,96.5604043 L1.71652648,74.0356997 C0.768515084,73.4791312 -1.7283952e-12,72.1341633 -1.7283952e-12,71.0278138 L-1.75504056e-12,25.9476378 C-1.75504056e-12,24.8429968 0.77933695,23.489967 1.71652648,22.9397519 L40.0831906,0.415047264 Z" id="path-2"></path>
        <filter x="-50%" y="-50%" width="200%" height="200%" filterUnits="objectBoundingBox" id="filter-3">
            <feOffset dx="0" dy="12" in="SourceAlpha" result="shadowOffsetOuter1"></feOffset>
            <feGaussianBlur stdDeviation="5" in="shadowOffsetOuter1" result="shadowBlurOuter1"></feGaussianBlur>
            <feColorMatrix values="0 0 0 0 0   0 0 0 0 0   0 0 0 0 0  0 0 0 0.112743433 0" type="matrix" in="shadowBlurOuter1"></feColorMatrix>
        </filter>
        <filter x="-50%" y="-50%" width="200%" height="200%" filterUnits="objectBoundingBox" id="filter-4">
            <feOffset dx="0" dy="-2" in="SourceAlpha" result="shadowOffsetInner1"></feOffset>
            <feComposite in="shadowOffsetInner1" in2="SourceAlpha" operator="arithmetic" k2="-1" k3="1" result="shadowInnerInner1"></feComposite>
            <feColorMatrix values="0 0 0 0 0   0 0 0 0 0   0 0 0 0 0  0 0 0 0.103345788 0" type="matrix" in="shadowInnerInner1" result="shadowMatrixInner1"></feColorMatrix>
            <feOffset dx="0" dy="1" in="SourceAlpha" result="shadowOffsetInner2"></feOffset>
            <feComposite in="shadowOffsetInner2" in2="SourceAlpha" operator="arithmetic" k2="-1" k3="1" result="shadowInnerInner2"></feComposite>
            <feColorMatrix values="0 0 0 0 1   0 0 0 0 1   0 0 0 0 1  0 0 0 0.5 0" type="matrix" in="shadowInnerInner2" result="shadowMatrixInner2"></feColorMatrix>
            <feMerge>
                <feMergeNode in="shadowMatrixInner1"></feMergeNode>
                <feMergeNode in="shadowMatrixInner2"></feMergeNode>
            </feMerge>
        </filter>
        <linearGradient x1="50%" y1="0%" x2="50%" y2="100%" id="linearGradient-5">
            <stop stop-color="#82F1E1" offset="0%"></stop>
            <stop stop-color="#4BDEBE" offset="100%"></stop>
        </linearGradient>
        <path d="M42.0235991,53.4835106 C40.1500776,53.4835106 38.6262559,51.9319169 38.6262559,50.0242499 C38.6262559,48.116583 40.1500776,46.5649893 42.0235991,46.5649893 C43.8971206,46.5649893 45.4209423,48.116583 45.4209423,50.0242499 C45.4209423,51.9319169 43.8971206,53.4835106 42.0235991,53.4835106 Z" id="path-6"></path>
        <filter x="-50%" y="-50%" width="200%" height="200%" filterUnits="objectBoundingBox" id="filter-7">
            <feOffset dx="0" dy="12" in="SourceAlpha" result="shadowOffsetOuter1"></feOffset>
            <feGaussianBlur stdDeviation="5" in="shadowOffsetOuter1" result="shadowBlurOuter1"></feGaussianBlur>
            <feColorMatrix values="0 0 0 0 0   0 0 0 0 0   0 0 0 0 0  0 0 0 0.112743433 0" type="matrix" in="shadowBlurOuter1"></feColorMatrix>
        </filter>
        <polygon id="path-8" points="12.6465266 13.2825577 28.3687156 21.2518293 42.2513309 7.12985998 51.8357589 62.3581192 21.4666314 62.8460562"></polygon>
        <path d="M43.3560186,26.6976957 C43.3451471,26.6594132 43.3365405,26.6206695 43.3211392,26.5837707 C43.304832,26.5436433 43.282636,26.5067445 43.2617989,26.4689233 C43.2463977,26.4412492 43.2346202,26.4121914 43.216954,26.3854398 C43.1752799,26.3217894 43.1277171,26.2618289 43.0747186,26.2083256 L39.0721953,22.1328554 C38.6300877,21.682229 37.9125689,21.682229 37.4709142,22.1328554 C37.0283537,22.5830205 37.0283537,23.3131551 37.4709142,23.7633202 L39.5414817,25.8716243 L28.571687,25.8716243 C28.1200669,23.6157251 26.3715676,21.835359 24.1560468,21.3755079 L24.1560468,10.2057859 L26.2266143,12.31409 C26.4476681,12.5391726 26.7375747,12.6517138 27.0274813,12.6517138 C27.3173879,12.6517138 27.6072945,12.5391726 27.8283483,12.31409 C28.2709089,11.8639249 28.2709089,11.1337903 27.8283483,10.6836252 L23.8253721,6.60769365 C23.7723736,6.55372919 23.7139393,6.50529954 23.6514281,6.46286594 C23.6242494,6.44441655 23.5948058,6.43196321 23.566721,6.41628123 C23.5300297,6.3959869 23.4951504,6.3733864 23.4561942,6.35724318 C23.4190499,6.3415612 23.3805466,6.33279774 23.3429494,6.32126687 C23.3103349,6.31158094 23.2786263,6.29866637 23.2451059,6.29174785 C23.0987936,6.26222882 22.9479516,6.26222882 22.8016394,6.29174785 C22.7676659,6.29866637 22.7364104,6.31158094 22.7037959,6.32126687 C22.6657456,6.33279774 22.6276954,6.3415612 22.5905511,6.35724318 C22.5520479,6.37384763 22.5167155,6.3959869 22.4800242,6.41628123 C22.4519395,6.43196321 22.4224959,6.44487779 22.3953171,6.46286594 C22.332806,6.50529954 22.2743717,6.55372919 22.2213731,6.60769365 L18.2188499,10.6831639 C17.7762893,11.133329 17.7762893,11.8634636 18.2188499,12.3136288 C18.6609575,12.7642551 19.3784764,12.7642551 19.820131,12.3136288 L21.8906984,10.2053247 L21.8906984,21.3745855 C19.6751777,21.8344365 17.9266784,23.6148026 17.4750582,25.8707018 L6.50616955,25.8707018 L8.57673697,23.7623978 C9.01929755,23.3122326 9.01929755,22.582098 8.57673697,22.1319329 C8.13462938,21.6813066 7.4171105,21.6813066 6.97545589,22.1319329 L2.97247966,26.2078644 C2.91948111,26.2618289 2.8719183,26.3213282 2.83024423,26.3849786 C2.81257804,26.4121914 2.80034761,26.4412492 2.7853993,26.4693845 C2.76501524,26.5072058 2.74281926,26.5431821 2.72651202,26.5833095 C2.71156371,26.6206695 2.70250412,26.6598745 2.69163263,26.6986182 C2.68212006,26.7318271 2.66943665,26.7641135 2.66264196,26.7987061 C2.6336513,26.947685 2.6336513,27.1012761 2.66264196,27.2502549 C2.66943665,27.2848476 2.68212006,27.317134 2.69163263,27.3503429 C2.7029571,27.3890866 2.71156371,27.4278303 2.72696499,27.4656516 C2.74327224,27.5053178 2.76546822,27.5417553 2.7853993,27.5791153 C2.80080059,27.6077119 2.81303102,27.6367697 2.83069721,27.6639825 C2.87237128,27.7276329 2.91993409,27.7875934 2.97293264,27.8410967 L6.97545589,31.9165669 C7.19650968,32.1416495 7.4864163,32.2541908 7.77632292,32.2541908 C8.06622954,32.2541908 8.35613616,32.1416495 8.57718995,31.9165669 C9.01975052,31.4664018 9.01975052,30.7362672 8.57718995,30.2861021 L6.50616955,28.1773368 L17.4755112,28.1773368 C17.9271314,30.433236 19.6756307,32.2136021 21.8911514,32.6734532 L21.8911514,43.8427139 L19.820584,41.7344098 C19.3784764,41.2837835 18.6609575,41.2837835 18.2193029,41.7344098 C17.7767423,42.184575 17.7767423,42.9147096 18.2193029,43.3648747 L22.2218261,47.440345 C22.2748247,47.4943094 22.333259,47.5427391 22.3957701,47.5851727 C22.4229488,47.6036221 22.4519395,47.6160754 22.4800242,47.6317574 C22.5167155,47.6520517 22.5515949,47.6746522 22.5905511,47.6907954 C22.6276954,47.7064774 22.6657456,47.7152409 22.7037959,47.7267717 C22.7364104,47.7364577 22.7681189,47.7493722 22.8020923,47.7562908 C22.875022,47.7719727 22.9493105,47.7798137 23.0235991,47.7798137 C23.0978877,47.7798137 23.1721763,47.7719727 23.2451059,47.7572132 C23.2790793,47.7502947 23.3107879,47.7373801 23.3434024,47.7276942 C23.3809996,47.7166246 23.4195028,47.7073999 23.4566471,47.6921791 C23.4956033,47.6755747 23.5309357,47.6534354 23.567627,47.6326798 C23.5957117,47.6169979 23.6247024,47.6045445 23.6514281,47.5860951 C23.7143922,47.5436615 23.7728265,47.4952319 23.8253721,47.4412674 L27.8278954,43.3657972 C28.2704559,42.915632 28.2704559,42.1854974 27.8278954,41.7353323 C27.3857878,41.284706 26.6682689,41.284706 26.2266143,41.7353323 L24.1560468,43.8427139 L24.1560468,32.6734532 C26.3715676,32.2136021 28.1200669,30.433236 28.571687,28.1773368 L39.5410287,28.1773368 L37.4704613,30.2856408 C37.0279007,30.735806 37.0279007,31.4659406 37.4704613,31.9161057 C37.6915151,32.1411883 37.9814217,32.2537295 38.2713283,32.2537295 C38.5612349,32.2537295 38.8511415,32.1411883 39.0721953,31.9161057 L43.0747186,27.8406354 C43.1277171,27.786671 43.1752799,27.7271717 43.216954,27.6635213 C43.2346202,27.6367697 43.2463977,27.6072506 43.2617989,27.5795766 C43.282183,27.5417553 43.304379,27.5053178 43.3206862,27.4651903 C43.3356345,27.4278303 43.3442411,27.3890866 43.3555656,27.3508041 C43.3655312,27.317134 43.3782146,27.2848476 43.3850093,27.2497937 C43.4139999,27.1008149 43.4139999,26.9472237 43.3850093,26.7982449 C43.3786675,26.7636523 43.3655312,26.7313659 43.3560186,26.6976957 Z" id="path-10"></path>
        <filter x="-50%" y="-50%" width="200%" height="200%" filterUnits="objectBoundingBox" id="filter-11">
            <feOffset dx="0" dy="1" in="SourceAlpha" result="shadowOffsetOuter1"></feOffset>
            <feGaussianBlur stdDeviation="0.5" in="shadowOffsetOuter1" result="shadowBlurOuter1"></feGaussianBlur>
            <feColorMatrix values="0 0 0 0 0   0 0 0 0 0   0 0 0 0 0  0 0 0 0.112743433 0" type="matrix" in="shadowBlurOuter1" result="shadowMatrixOuter1"></feColorMatrix>
            <feOffset dx="3" dy="3" in="SourceAlpha" result="shadowOffsetOuter2"></feOffset>
            <feGaussianBlur stdDeviation="1.5" in="shadowOffsetOuter2" result="shadowBlurOuter2"></feGaussianBlur>
            <feColorMatrix values="0 0 0 0 0.321153247   0 0 0 0 0.698953019   0 0 0 0 0.629437861  0 0 0 0.398012908 0" type="matrix" in="shadowBlurOuter2" result="shadowMatrixOuter2"></feColorMatrix>
            <feMerge>
                <feMergeNode in="shadowMatrixOuter1"></feMergeNode>
                <feMergeNode in="shadowMatrixOuter2"></feMergeNode>
            </feMerge>
        </filter>
        <linearGradient x1="62.6583883%" y1="120.222687%" x2="50%" y2="76.3971224%" id="linearGradient-12">
            <stop stop-color="#62B3FD" offset="0%"></stop>
            <stop stop-color="#2378EC" offset="100%"></stop>
        </linearGradient>
        <path d="M43.3560186,26.6976957 C43.3451471,26.6594132 43.3365405,26.6206695 43.3211392,26.5837707 C43.304832,26.5436433 43.282636,26.5067445 43.2617989,26.4689233 C43.2463977,26.4412492 43.2346202,26.4121914 43.216954,26.3854398 C43.1752799,26.3217894 43.1277171,26.2618289 43.0747186,26.2083256 L39.0721953,22.1328554 C38.6300877,21.682229 37.9125689,21.682229 37.4709142,22.1328554 C37.0283537,22.5830205 37.0283537,23.3131551 37.4709142,23.7633202 L39.5414817,25.8716243 L28.571687,25.8716243 C28.1200669,23.6157251 26.3715676,21.835359 24.1560468,21.3755079 L24.1560468,10.2057859 L26.2266143,12.31409 C26.4476681,12.5391726 26.7375747,12.6517138 27.0274813,12.6517138 C27.3173879,12.6517138 27.6072945,12.5391726 27.8283483,12.31409 C28.2709089,11.8639249 28.2709089,11.1337903 27.8283483,10.6836252 L23.8253721,6.60769365 C23.7723736,6.55372919 23.7139393,6.50529954 23.6514281,6.46286594 C23.6242494,6.44441655 23.5948058,6.43196321 23.566721,6.41628123 C23.5300297,6.3959869 23.4951504,6.3733864 23.4561942,6.35724318 C23.4190499,6.3415612 23.3805466,6.33279774 23.3429494,6.32126687 C23.3103349,6.31158094 23.2786263,6.29866637 23.2451059,6.29174785 C23.0987936,6.26222882 22.9479516,6.26222882 22.8016394,6.29174785 C22.7676659,6.29866637 22.7364104,6.31158094 22.7037959,6.32126687 C22.6657456,6.33279774 22.6276954,6.3415612 22.5905511,6.35724318 C22.5520479,6.37384763 22.5167155,6.3959869 22.4800242,6.41628123 C22.4519395,6.43196321 22.4224959,6.44487779 22.3953171,6.46286594 C22.332806,6.50529954 22.2743717,6.55372919 22.2213731,6.60769365 L18.2188499,10.6831639 C17.7762893,11.133329 17.7762893,11.8634636 18.2188499,12.3136288 C18.6609575,12.7642551 19.3784764,12.7642551 19.820131,12.3136288 L21.8906984,10.2053247 L21.8906984,21.3745855 C19.6751777,21.8344365 17.9266784,23.6148026 17.4750582,25.8707018 L6.50616955,25.8707018 L8.57673697,23.7623978 C9.01929755,23.3122326 9.01929755,22.582098 8.57673697,22.1319329 C8.13462938,21.6813066 7.4171105,21.6813066 6.97545589,22.1319329 L2.97247966,26.2078644 C2.91948111,26.2618289 2.8719183,26.3213282 2.83024423,26.3849786 C2.81257804,26.4121914 2.80034761,26.4412492 2.7853993,26.4693845 C2.76501524,26.5072058 2.74281926,26.5431821 2.72651202,26.5833095 C2.71156371,26.6206695 2.70250412,26.6598745 2.69163263,26.6986182 C2.68212006,26.7318271 2.66943665,26.7641135 2.66264196,26.7987061 C2.6336513,26.947685 2.6336513,27.1012761 2.66264196,27.2502549 C2.66943665,27.2848476 2.68212006,27.317134 2.69163263,27.3503429 C2.7029571,27.3890866 2.71156371,27.4278303 2.72696499,27.4656516 C2.74327224,27.5053178 2.76546822,27.5417553 2.7853993,27.5791153 C2.80080059,27.6077119 2.81303102,27.6367697 2.83069721,27.6639825 C2.87237128,27.7276329 2.91993409,27.7875934 2.97293264,27.8410967 L6.97545589,31.9165669 C7.19650968,32.1416495 7.4864163,32.2541908 7.77632292,32.2541908 C8.06622954,32.2541908 8.35613616,32.1416495 8.57718995,31.9165669 C9.01975052,31.4664018 9.01975052,30.7362672 8.57718995,30.2861021 L6.50616955,28.1773368 L17.4755112,28.1773368 C17.9271314,30.433236 19.6756307,32.2136021 21.8911514,32.6734532 L21.8911514,43.8427139 L19.820584,41.7344098 C19.3784764,41.2837835 18.6609575,41.2837835 18.2193029,41.7344098 C17.7767423,42.184575 17.7767423,42.9147096 18.2193029,43.3648747 L22.2218261,47.440345 C22.2748247,47.4943094 22.333259,47.5427391 22.3957701,47.5851727 C22.4229488,47.6036221 22.4519395,47.6160754 22.4800242,47.6317574 C22.5167155,47.6520517 22.5515949,47.6746522 22.5905511,47.6907954 C22.6276954,47.7064774 22.6657456,47.7152409 22.7037959,47.7267717 C22.7364104,47.7364577 22.7681189,47.7493722 22.8020923,47.7562908 C22.875022,47.7719727 22.9493105,47.7798137 23.0235991,47.7798137 C23.0978877,47.7798137 23.1721763,47.7719727 23.2451059,47.7572132 C23.2790793,47.7502947 23.3107879,47.7373801 23.3434024,47.7276942 C23.3809996,47.7166246 23.4195028,47.7073999 23.4566471,47.6921791 C23.4956033,47.6755747 23.5309357,47.6534354 23.567627,47.6326798 C23.5957117,47.6169979 23.6247024,47.6045445 23.6514281,47.5860951 C23.7143922,47.5436615 23.7728265,47.4952319 23.8253721,47.4412674 L27.8278954,43.3657972 C28.2704559,42.915632 28.2704559,42.1854974 27.8278954,41.7353323 C27.3857878,41.284706 26.6682689,41.284706 26.2266143,41.7353323 L24.1560468,43.8427139 L24.1560468,32.6734532 C26.3715676,32.2136021 28.1200669,30.433236 28.571687,28.1773368 L39.5410287,28.1773368 L37.4704613,30.2856408 C37.0279007,30.735806 37.0279007,31.4659406 37.4704613,31.9161057 C37.6915151,32.1411883 37.9814217,32.2537295 38.2713283,32.2537295 C38.5612349,32.2537295 38.8511415,32.1411883 39.0721953,31.9161057 L43.0747186,27.8406354 C43.1277171,27.786671 43.1752799,27.7271717 43.216954,27.6635213 C43.2346202,27.6367697 43.2463977,27.6072506 43.2617989,27.5795766 C43.282183,27.5417553 43.304379,27.5053178 43.3206862,27.4651903 C43.3356345,27.4278303 43.3442411,27.3890866 43.3555656,27.3508041 C43.3655312,27.317134 43.3782146,27.2848476 43.3850093,27.2497937 C43.4139999,27.1008149 43.4139999,26.9472237 43.3850093,26.7982449 C43.3786675,26.7636523 43.3655312,26.7313659 43.3560186,26.6976957 Z" id="path-13"></path>
        <filter x="-50%" y="-50%" width="200%" height="200%" filterUnits="objectBoundingBox" id="filter-14">
            <feOffset dx="0" dy="1" in="SourceAlpha" result="shadowOffsetOuter1"></feOffset>
            <feGaussianBlur stdDeviation="0.5" in="shadowOffsetOuter1" result="shadowBlurOuter1"></feGaussianBlur>
            <feColorMatrix values="0 0 0 0 0   0 0 0 0 0   0 0 0 0 0  0 0 0 0.112743433 0" type="matrix" in="shadowBlurOuter1"></feColorMatrix>
        </filter>
    </defs>
    <g stroke="none" stroke-width="1" fill="none" fill-rule="evenodd">
        <g transform="translate(-20.000000, -36.000000)">
            <g transform="translate(30.500000, 36.000000)">
                <g>
                    <g>
                        <use fill="black" fill-opacity="1" filter="url(#filter-3)" xlink:href="#path-2"></use>
                        <use fill="url(#linearGradient-1)" fill-rule="evenodd" xlink:href="#path-2"></use>
                        <use fill="black" fill-opacity="1" filter="url(#filter-4)" xlink:href="#path-2"></use>
                    </g>
                    <g>
                        <use fill="black" fill-opacity="1" filter="url(#filter-7)" xlink:href="#path-6"></use>
                        <use fill="url(#linearGradient-5)" fill-rule="evenodd" xlink:href="#path-6"></use>
                    </g>
                    <g transform="translate(19.000000, 23.000000)">
                        <g></g>
                        <g>
                            <mask id="mask-9" fill="white">
                                <use xlink:href="#path-8"></use>
                            </mask>
                            <g opacity="0.139109142" transform="translate(32.241143, 34.987958) rotate(-34.000000) translate(-32.241143, -34.987958) "></g>
                            <g mask="url(#mask-9)" fill-opacity="1" fill="black">
                                <use filter="url(#filter-11)" xlink:href="#path-10"></use>
                            </g>
                        </g>
                        <g>
                            <polygon fill="url(#linearGradient-12)" opacity="0.371152052" transform="translate(32.084794, 34.756162) rotate(-34.000000) translate(-32.084794, -34.756162) " points="12.4901782 13.3303582 19.111097 11.4690589 19.9438658 16.395652 28.2123672 21.2996298 34.6578391 13.1190979 33.0391106 8.13178024 41.265945 6.61846756 51.6794106 62.4059197 21.310283 62.8938567"></polygon>
                            <g>
                                <use fill="black" fill-opacity="1" filter="url(#filter-14)" xlink:href="#path-13"></use>
                                <use fill="#FFFFFF" fill-rule="evenodd" xlink:href="#path-13"></use>
                            </g>
                        </g>
                    </g>
                </g>
            </g>
        </g>
    </g>
</svg>